<svg width="231" height="135" viewBox="0 0 231 135" fill="none" xmlns="http://www.w3.org/2000/svg">
<path d="M55.8334 125.733V124.863H59.428V125.733L58.3077 125.925V129.37H63.1601V125.925L62.0398 125.733V124.863H65.6345V125.733L64.5141 125.925V133.782L65.6345 133.974V134.837H62.0398V133.974L63.1601 133.782V130.432H58.3077V133.782L59.428 133.974V134.837H55.8334V133.974L56.9537 133.782V125.925L55.8334 125.733Z" fill="#999591"/>
<path d="M71.6278 134.837C71.5866 134.636 71.5545 134.455 71.5316 134.296C71.5087 134.136 71.4927 133.976 71.4835 133.816C71.2223 134.15 70.8947 134.428 70.5006 134.652C70.1112 134.871 69.6942 134.981 69.2497 134.981C68.4754 134.981 67.8866 134.793 67.4833 134.419C67.0801 134.04 66.8785 133.508 66.8785 132.823C66.8785 132.12 67.1626 131.578 67.7308 131.199C68.3035 130.816 69.0871 130.624 70.0814 130.624H71.4766V129.761C71.4766 129.327 71.3392 128.985 71.0642 128.733C70.7893 128.478 70.4067 128.35 69.9164 128.35C69.5773 128.35 69.2772 128.393 69.016 128.48C68.7594 128.567 68.551 128.685 68.3906 128.836L68.2462 129.617H67.2015V128.179C67.5406 127.909 67.9507 127.695 68.4318 127.535C68.9129 127.37 69.4353 127.288 69.9989 127.288C70.842 127.288 71.5247 127.503 72.0471 127.932C72.5694 128.361 72.8306 128.975 72.8306 129.775V133.343C72.8306 133.439 72.8306 133.533 72.8306 133.624C72.8352 133.716 72.8421 133.807 72.8512 133.898L73.4011 133.974V134.837H71.6278ZM69.449 133.85C69.8981 133.85 70.3082 133.743 70.6793 133.528C71.0505 133.314 71.3162 133.056 71.4766 132.754V131.535H70.0333C69.4788 131.535 69.039 131.663 68.7136 131.919C68.3929 132.174 68.2325 132.485 68.2325 132.85C68.2325 133.175 68.3333 133.423 68.5349 133.597C68.7365 133.766 69.0412 133.85 69.449 133.85Z" fill="#999591"/>
<path d="M74.5283 133.974L75.6486 133.782V128.487L74.5283 128.295V127.425H77.0026V133.782L78.1229 133.974V134.837H74.5283V133.974ZM77.0026 125.528H75.6486V124.151H77.0026V125.528Z" fill="#999591"/>
<path d="M79.1608 128.295V127.425H81.4908L81.6214 128.501C81.8321 128.122 82.091 127.825 82.398 127.61C82.7096 127.395 83.0647 127.288 83.4634 127.288C83.5688 127.288 83.6764 127.297 83.7864 127.315C83.901 127.329 83.988 127.345 84.0476 127.363L83.8689 128.617L83.0991 128.576C82.7417 128.576 82.4416 128.66 82.1987 128.829C81.9559 128.994 81.768 129.227 81.6351 129.528V133.782L82.7554 133.974V134.837H79.1608V133.974L80.2811 133.782V128.487L79.1608 128.295Z" fill="#999591"/>
<path d="M88.1921 133.926C88.6411 133.926 89.0352 133.789 89.3743 133.515C89.7179 133.236 89.8897 132.896 89.8897 132.494H91.1063L91.12 132.535C91.1429 133.175 90.8566 133.743 90.2609 134.241C89.6698 134.734 88.9802 134.981 88.1921 134.981C87.1107 134.981 86.2836 134.629 85.7109 133.926C85.1427 133.222 84.8586 132.339 84.8586 131.275V130.987C84.8586 129.932 85.145 129.053 85.7178 128.35C86.2905 127.642 87.1153 127.288 88.1921 127.288C88.7878 127.288 89.3216 127.386 89.7935 127.583C90.2701 127.779 90.6641 128.048 90.9757 128.391L91.0376 130.035H89.9585L89.6629 128.87C89.5026 128.715 89.2964 128.59 89.0443 128.494C88.7923 128.398 88.5082 128.35 88.1921 128.35C87.4819 128.35 86.9732 128.606 86.6662 129.117C86.3638 129.624 86.2126 130.247 86.2126 130.987V131.275C86.2126 132.033 86.3638 132.665 86.6662 133.172C86.9687 133.675 87.4773 133.926 88.1921 133.926Z" fill="#999591"/>
<path d="M97.7595 133.741C97.5258 134.138 97.2234 134.444 96.8522 134.659C96.4857 134.873 96.0618 134.981 95.5807 134.981C94.7742 134.981 94.1442 134.723 93.6906 134.207C93.237 133.691 93.0101 132.887 93.0101 131.795V128.487L92.1579 128.295V127.425H94.3642V131.809C94.3642 132.599 94.481 133.143 94.7147 133.439C94.9484 133.736 95.3126 133.885 95.8075 133.885C96.2886 133.885 96.685 133.789 96.9966 133.597C97.3127 133.401 97.551 133.124 97.7114 132.768V128.487L96.7148 128.295V127.425H99.0654V133.782L99.9176 133.974V134.837H97.8488L97.7595 133.741Z" fill="#999591"/>
<path d="M103.354 125.637V127.425H104.763V128.425H103.354V132.926C103.354 133.273 103.425 133.517 103.567 133.659C103.714 133.8 103.906 133.871 104.145 133.871C104.264 133.871 104.397 133.862 104.543 133.844C104.694 133.821 104.82 133.798 104.921 133.775L105.107 134.7C104.979 134.782 104.791 134.848 104.543 134.898C104.296 134.953 104.048 134.981 103.801 134.981C103.251 134.981 102.814 134.816 102.488 134.487C102.163 134.154 102 133.633 102 132.926V128.425H100.825V127.425H102V125.637H103.354Z" fill="#999591"/>
<path d="M111.836 129.754H110.818L110.598 128.864C110.434 128.708 110.225 128.585 109.973 128.494C109.726 128.398 109.444 128.35 109.128 128.35C108.647 128.35 108.289 128.455 108.055 128.665C107.822 128.875 107.705 129.128 107.705 129.425C107.705 129.718 107.808 129.948 108.014 130.117C108.22 130.286 108.64 130.437 109.272 130.569C110.211 130.77 110.91 131.044 111.368 131.391C111.826 131.734 112.056 132.195 112.056 132.775C112.056 133.433 111.788 133.965 111.251 134.371C110.72 134.777 110.023 134.981 109.162 134.981C108.598 134.981 108.092 134.917 107.643 134.789C107.194 134.656 106.793 134.467 106.44 134.22L106.433 132.528H107.451L107.705 133.522C107.861 133.663 108.071 133.766 108.337 133.83C108.608 133.894 108.882 133.926 109.162 133.926C109.643 133.926 110.019 133.83 110.289 133.638C110.564 133.442 110.702 133.186 110.702 132.871C110.702 132.574 110.587 132.33 110.358 132.138C110.133 131.946 109.705 131.779 109.073 131.638C108.17 131.441 107.49 131.174 107.031 130.836C106.573 130.498 106.344 130.042 106.344 129.466C106.344 128.864 106.601 128.35 107.114 127.925C107.632 127.5 108.303 127.288 109.128 127.288C109.691 127.288 110.198 127.361 110.647 127.507C111.096 127.653 111.469 127.857 111.767 128.117L111.836 129.754Z" fill="#999591"/>
<path d="M116.722 132.152C116.722 131.594 116.883 131.108 117.204 130.693C117.529 130.272 118.012 129.852 118.654 129.432C118.296 128.98 118.031 128.578 117.857 128.227C117.682 127.87 117.595 127.505 117.595 127.131C117.595 126.359 117.818 125.765 118.262 125.35C118.711 124.929 119.327 124.719 120.111 124.719C120.835 124.719 121.424 124.927 121.877 125.343C122.331 125.758 122.558 126.258 122.558 126.843C122.558 127.29 122.436 127.679 122.193 128.007C121.955 128.332 121.6 128.665 121.128 129.007L120.379 129.555L122.716 132.357C122.904 132.06 123.05 131.731 123.156 131.371C123.261 131.01 123.314 130.629 123.314 130.227H124.523C124.523 130.825 124.434 131.38 124.255 131.891C124.077 132.403 123.818 132.862 123.479 133.268L124.75 134.803L124.737 134.837H123.163L122.578 134.138C122.212 134.412 121.806 134.622 121.362 134.768C120.917 134.91 120.457 134.981 119.98 134.981C118.986 134.981 118.193 134.718 117.602 134.193C117.016 133.668 116.722 132.987 116.722 132.152ZM119.98 133.926C120.31 133.926 120.636 133.871 120.956 133.761C121.277 133.647 121.579 133.485 121.864 133.275L119.382 130.295L119.107 130.494C118.69 130.804 118.413 131.101 118.276 131.384C118.143 131.668 118.076 131.923 118.076 132.152C118.076 132.668 118.239 133.092 118.564 133.426C118.89 133.759 119.362 133.926 119.98 133.926ZM118.949 127.117C118.949 127.359 119.011 127.612 119.135 127.877C119.259 128.137 119.444 128.423 119.692 128.733L120.64 128.083C120.901 127.909 121.078 127.722 121.169 127.521C121.266 127.315 121.314 127.089 121.314 126.843C121.314 126.564 121.201 126.318 120.977 126.103C120.757 125.888 120.468 125.781 120.111 125.781C119.74 125.781 119.453 125.911 119.252 126.172C119.05 126.427 118.949 126.742 118.949 127.117Z" fill="#999591"/>
<path d="M136.318 127.809H135.294L135.039 126.384C134.833 126.21 134.558 126.067 134.215 125.952C133.871 125.838 133.472 125.781 133.019 125.781C132.299 125.781 131.747 125.934 131.362 126.24C130.977 126.541 130.785 126.936 130.785 127.425C130.785 127.859 130.98 128.222 131.369 128.514C131.763 128.802 132.398 129.055 133.273 129.275C134.327 129.535 135.126 129.918 135.672 130.425C136.222 130.932 136.496 131.56 136.496 132.309C136.496 133.113 136.167 133.759 135.507 134.248C134.851 134.736 133.992 134.981 132.929 134.981C132.16 134.981 131.474 134.855 130.874 134.604C130.279 134.353 129.793 134.024 129.417 133.617V131.761H130.434L130.696 133.193C130.957 133.407 131.268 133.583 131.63 133.72C131.992 133.857 132.425 133.926 132.929 133.926C133.612 133.926 134.15 133.782 134.544 133.494C134.943 133.206 135.142 132.816 135.142 132.323C135.142 131.866 134.971 131.485 134.627 131.179C134.283 130.868 133.676 130.608 132.806 130.398C131.747 130.147 130.92 129.777 130.324 129.288C129.729 128.8 129.431 128.185 129.431 127.446C129.431 126.665 129.763 126.016 130.427 125.5C131.092 124.98 131.956 124.719 133.019 124.719C133.72 124.719 134.357 124.84 134.929 125.082C135.507 125.32 135.97 125.61 136.318 125.952V127.809Z" fill="#999591"/>
<path d="M137.589 133.974L138.71 133.782V125.213L137.589 125.021V124.151H140.064V128.411C140.32 128.055 140.634 127.779 141.005 127.583C141.376 127.386 141.789 127.288 142.242 127.288C143.04 127.288 143.658 127.526 144.098 128C144.538 128.475 144.758 129.206 144.758 130.192V133.782L145.878 133.974V134.837H142.284V133.974L143.404 133.782V130.179C143.404 129.567 143.271 129.115 143.005 128.822C142.744 128.53 142.352 128.384 141.83 128.384C141.459 128.384 141.12 128.473 140.813 128.651C140.51 128.825 140.261 129.062 140.064 129.364V133.782L141.184 133.974V134.837H137.589V133.974Z" fill="#999591"/>
<path d="M151.714 134.837C151.672 134.636 151.64 134.455 151.617 134.296C151.594 134.136 151.578 133.976 151.569 133.816C151.308 134.15 150.98 134.428 150.586 134.652C150.197 134.871 149.78 134.981 149.335 134.981C148.561 134.981 147.972 134.793 147.569 134.419C147.166 134.04 146.964 133.508 146.964 132.823C146.964 132.12 147.248 131.578 147.816 131.199C148.389 130.816 149.173 130.624 150.167 130.624H151.562V129.761C151.562 129.327 151.425 128.985 151.15 128.733C150.875 128.478 150.492 128.35 150.002 128.35C149.663 128.35 149.363 128.393 149.102 128.48C148.845 128.567 148.637 128.685 148.476 128.836L148.332 129.617H147.287V128.179C147.626 127.909 148.036 127.695 148.518 127.535C148.999 127.37 149.521 127.288 150.085 127.288C150.928 127.288 151.61 127.503 152.133 127.932C152.655 128.361 152.916 128.975 152.916 129.775V133.343C152.916 133.439 152.916 133.533 152.916 133.624C152.921 133.716 152.928 133.807 152.937 133.898L153.487 133.974V134.837H151.714ZM149.535 133.85C149.984 133.85 150.394 133.743 150.765 133.528C151.136 133.314 151.402 133.056 151.562 132.754V131.535H150.119C149.565 131.535 149.125 131.663 148.799 131.919C148.479 132.174 148.318 132.485 148.318 132.85C148.318 133.175 148.419 133.423 148.621 133.597C148.822 133.766 149.127 133.85 149.535 133.85Z" fill="#999591"/>
<path d="M157.054 128.295L156.16 128.432L157.693 132.652L157.817 133.186H157.858L157.989 132.652L159.473 128.432L158.573 128.295V127.425H161.446V128.295L160.834 128.398L158.339 134.837H157.315L154.793 128.398L154.181 128.295V127.425H157.054V128.295Z" fill="#999591"/>
<path d="M165.666 134.981C164.63 134.981 163.806 134.638 163.192 133.953C162.582 133.264 162.278 132.371 162.278 131.275V130.973C162.278 129.918 162.591 129.042 163.219 128.343C163.852 127.64 164.598 127.288 165.46 127.288C166.459 127.288 167.215 127.589 167.728 128.192C168.246 128.795 168.505 129.599 168.505 130.603V131.446H163.68L163.659 131.48C163.673 132.193 163.854 132.78 164.202 133.241C164.55 133.697 165.038 133.926 165.666 133.926C166.124 133.926 166.525 133.862 166.869 133.734C167.217 133.602 167.517 133.421 167.769 133.193L168.298 134.07C168.033 134.325 167.68 134.542 167.24 134.72C166.805 134.894 166.28 134.981 165.666 134.981ZM165.46 128.35C165.006 128.35 164.619 128.542 164.298 128.925C163.978 129.304 163.78 129.781 163.707 130.357L163.721 130.391H167.151V130.213C167.151 129.683 167.009 129.24 166.724 128.884C166.44 128.528 166.019 128.35 165.46 128.35Z" fill="#999591"/>
<path d="M175.536 129.754H174.519L174.299 128.864C174.134 128.708 173.925 128.585 173.673 128.494C173.426 128.398 173.144 128.35 172.828 128.35C172.347 128.35 171.989 128.455 171.756 128.665C171.522 128.875 171.405 129.128 171.405 129.425C171.405 129.718 171.508 129.948 171.714 130.117C171.921 130.286 172.34 130.437 172.972 130.569C173.911 130.77 174.61 131.044 175.068 131.391C175.527 131.734 175.756 132.195 175.756 132.775C175.756 133.433 175.488 133.965 174.952 134.371C174.42 134.777 173.724 134.981 172.862 134.981C172.299 134.981 171.792 134.917 171.343 134.789C170.894 134.656 170.493 134.467 170.14 134.22L170.134 132.528H171.151L171.405 133.522C171.561 133.663 171.772 133.766 172.037 133.83C172.308 133.894 172.583 133.926 172.862 133.926C173.343 133.926 173.719 133.83 173.989 133.638C174.264 133.442 174.402 133.186 174.402 132.871C174.402 132.574 174.287 132.33 174.058 132.138C173.834 131.946 173.405 131.779 172.773 131.638C171.87 131.441 171.19 131.174 170.732 130.836C170.273 130.498 170.044 130.042 170.044 129.466C170.044 128.864 170.301 128.35 170.814 127.925C171.332 127.5 172.003 127.288 172.828 127.288C173.391 127.288 173.898 127.361 174.347 127.507C174.796 127.653 175.169 127.857 175.467 128.117L175.536 129.754Z" fill="#999591"/>
<path d="M83.972 9.96725L84.7143 9.8645L88.2127 0.856766H89.3742L92.8108 9.8645L93.5462 9.96725V10.8304H90.6733V9.96725L91.4293 9.8371L90.7695 8.00131H86.7624L86.082 9.8371L86.8381 9.96725V10.8304H83.972V9.96725ZM87.1817 6.87106H90.3571L88.8038 2.58981H88.7625L87.1817 6.87106Z" fill="#999591"/>
<path d="M96.3024 4.28861L95.4501 4.43931L96.4192 8.13146L96.5773 9.02881H96.6185L96.811 8.13146L98.2956 3.41866H99.3815L100.873 8.13146L101.086 9.13156H101.127L101.327 8.13146L102.241 4.43931L101.375 4.28861V3.41866H104.206V4.28861L103.56 4.38451L101.684 10.8304H100.591L99.1478 6.31621L98.8385 5.06951L98.7973 5.07636L98.5086 6.31621L97.0928 10.8304H95.9999L94.1236 4.38451L93.4706 4.28861V3.41866H96.3024V4.28861Z" fill="#999591"/>
<path d="M108.701 10.9742C107.666 10.9742 106.841 10.6317 106.227 9.9467C105.618 9.25714 105.313 8.36436 105.313 7.26836V6.96696C105.313 5.91206 105.627 5.03526 106.255 4.33656C106.887 3.6333 107.634 3.28166 108.495 3.28166C109.494 3.28166 110.25 3.58306 110.763 4.18586C111.281 4.78866 111.54 5.59239 111.54 6.59706V7.43961H106.715L106.695 7.47386C106.708 8.18626 106.889 8.77307 107.238 9.23431C107.586 9.69097 108.074 9.9193 108.701 9.9193C109.16 9.9193 109.561 9.85537 109.904 9.7275C110.253 9.59507 110.553 9.41469 110.805 9.18636L111.334 10.0632C111.068 10.3189 110.715 10.5358 110.275 10.7139C109.84 10.8874 109.315 10.9742 108.701 10.9742ZM108.495 4.34341C108.042 4.34341 107.654 4.53521 107.334 4.91881C107.013 5.29784 106.816 5.77506 106.743 6.35046L106.756 6.38471H110.186V6.20661C110.186 5.67688 110.044 5.23391 109.76 4.87771C109.476 4.52151 109.054 4.34341 108.495 4.34341Z" fill="#999591"/>
<path d="M118.571 5.74766H117.554L117.334 4.85716C117.169 4.70189 116.961 4.57859 116.709 4.48726C116.461 4.39136 116.179 4.34341 115.863 4.34341C115.382 4.34341 115.025 4.44844 114.791 4.65851C114.557 4.86858 114.441 5.12203 114.441 5.41886C114.441 5.71113 114.544 5.94174 114.75 6.11071C114.956 6.27968 115.375 6.43038 116.008 6.56281C116.947 6.76374 117.646 7.03774 118.104 7.38481C118.562 7.72731 118.791 8.18854 118.791 8.76851C118.791 9.4261 118.523 9.95812 117.987 10.3646C117.456 10.771 116.759 10.9742 115.898 10.9742C115.334 10.9742 114.828 10.9103 114.379 10.7824C113.93 10.65 113.529 10.4605 113.176 10.2139L113.169 8.52191H114.186L114.441 9.51515C114.596 9.65672 114.807 9.75947 115.073 9.8234C115.343 9.88734 115.618 9.9193 115.898 9.9193C116.379 9.9193 116.755 9.8234 117.025 9.63161C117.3 9.43524 117.437 9.17951 117.437 8.86441C117.437 8.56757 117.323 8.32326 117.094 8.13146C116.869 7.93966 116.441 7.77297 115.808 7.63141C114.906 7.43504 114.225 7.16789 113.767 6.82996C113.309 6.49203 113.08 6.03536 113.08 5.45996C113.08 4.85716 113.336 4.34341 113.849 3.91871C114.367 3.49401 115.039 3.28166 115.863 3.28166C116.427 3.28166 116.933 3.35473 117.382 3.50086C117.831 3.647 118.205 3.85021 118.503 4.11051L118.571 5.74766Z" fill="#999591"/>
<path d="M120.063 7.05601C120.063 5.96001 120.361 5.05809 120.956 4.35026C121.552 3.63786 122.361 3.28166 123.382 3.28166C124.409 3.28166 125.22 3.63558 125.816 4.34341C126.416 5.05124 126.716 5.95544 126.716 7.05601V7.20671C126.716 8.31184 126.418 9.21604 125.822 9.9193C125.227 10.6226 124.418 10.9742 123.396 10.9742C122.365 10.9742 121.552 10.6226 120.956 9.9193C120.361 9.21147 120.063 8.30727 120.063 7.20671V7.05601ZM121.417 7.20671C121.417 7.99217 121.582 8.64064 121.912 9.15211C122.246 9.66357 122.741 9.9193 123.396 9.9193C124.038 9.9193 124.526 9.66357 124.86 9.15211C125.195 8.64064 125.362 7.99217 125.362 7.20671V7.05601C125.362 6.27968 125.195 5.63349 124.86 5.11746C124.526 4.60143 124.033 4.34341 123.382 4.34341C122.732 4.34341 122.242 4.60143 121.912 5.11746C121.582 5.63349 121.417 6.27968 121.417 7.05601V7.20671Z" fill="#999591"/>
<path d="M127.692 9.96725L128.812 9.77545V4.48041L127.692 4.28861V3.41866H130.029L130.118 4.38451C130.356 4.03288 130.663 3.76116 131.039 3.56936C131.415 3.37756 131.85 3.28166 132.345 3.28166C132.84 3.28166 133.264 3.39583 133.617 3.62416C133.974 3.8525 134.242 4.19499 134.421 4.65166C134.654 4.23153 134.964 3.89816 135.349 3.65156C135.734 3.40496 136.183 3.28166 136.696 3.28166C137.456 3.28166 138.057 3.54196 138.497 4.06256C138.936 4.57859 139.156 5.35721 139.156 6.39841V9.77545L140.277 9.96725V10.8304H136.675V9.96725L137.795 9.77545V6.38471C137.795 5.65404 137.669 5.13801 137.417 4.83661C137.165 4.53064 136.792 4.37766 136.297 4.37766C135.825 4.37766 135.445 4.54434 135.156 4.87771C134.872 5.20651 134.707 5.62208 134.661 6.12441V9.77545L135.782 9.96725V10.8304H132.187V9.96725L133.307 9.77545V6.38471C133.307 5.69058 133.177 5.18368 132.916 4.86401C132.659 4.53978 132.285 4.37766 131.795 4.37766C131.383 4.37766 131.044 4.46214 130.778 4.63111C130.512 4.80008 130.308 5.03754 130.166 5.34351V9.77545L131.287 9.96725V10.8304H127.692V9.96725Z" fill="#999591"/>
<path d="M144.593 10.9742C143.557 10.9742 142.733 10.6317 142.119 9.9467C141.509 9.25714 141.205 8.36436 141.205 7.26836V6.96696C141.205 5.91206 141.518 5.03526 142.146 4.33656C142.778 3.6333 143.525 3.28166 144.387 3.28166C145.386 3.28166 146.142 3.58306 146.655 4.18586C147.173 4.78866 147.432 5.59239 147.432 6.59706V7.43961H142.607L142.586 7.47386C142.6 8.18626 142.781 8.77307 143.129 9.23431C143.477 9.69097 143.965 9.9193 144.593 9.9193C145.051 9.9193 145.452 9.85537 145.796 9.7275C146.144 9.59507 146.444 9.41469 146.696 9.18636L147.225 10.0632C146.96 10.3189 146.607 10.5358 146.167 10.7139C145.732 10.8874 145.207 10.9742 144.593 10.9742ZM144.387 4.34341C143.933 4.34341 143.546 4.53521 143.225 4.91881C142.904 5.29784 142.707 5.77506 142.634 6.35046L142.648 6.38471H146.078V6.20661C146.078 5.67688 145.936 5.23391 145.651 4.87771C145.367 4.52151 144.946 4.34341 144.387 4.34341Z" fill="#999591"/>
<rect x="0.754028" y="107.028" width="230.246" height="2.00411" fill="#FF9000"/>
<rect x="0.754028" y="26.8632" width="230.246" height="2.00411" fill="#FF9000"/>
<path d="M41.5614 58.8304C41.5614 60.5138 41.1485 62.0289 40.3227 63.3757C39.4969 64.7225 38.3896 65.7699 37.0007 66.5181C37.6764 67.0419 38.2957 67.6592 38.8588 68.3699C39.4218 69.0433 39.891 69.7915 40.2664 70.6146C40.6793 71.4376 40.9984 72.2793 41.2236 73.1397C41.4488 74.0002 41.5614 74.8419 41.5614 75.6649V79.2563C41.5239 80.4534 41.2799 81.5757 40.8295 82.6232C40.379 83.6333 39.7597 84.5311 38.9714 85.3167C38.1831 86.0649 37.2635 86.6635 36.2125 87.1124C35.1614 87.5987 34.0354 87.8419 32.8342 87.8419H27.5415C27.2788 87.8419 27.0536 87.7484 26.8659 87.5613C26.7157 87.3743 26.6407 87.1498 26.6407 86.8879C26.6407 87.1498 26.5468 87.3743 26.3591 87.5613C26.1715 87.7484 25.965 87.8419 25.7398 87.8419H22.7556C22.7556 87.5052 22.8119 87.262 22.9246 87.1124C23.0747 86.9628 23.2248 86.7944 23.375 86.6074C23.5251 86.4577 23.6565 86.2333 23.7691 85.934C23.9193 85.6347 23.9943 85.1671 23.9943 84.5311V68.875C23.8817 67.7527 23.3562 66.9297 22.4178 66.4059C22.9058 66.1066 23.4313 65.957 23.9943 65.957V47.4951C23.9943 46.8591 23.9193 46.3915 23.7691 46.0922C23.6565 45.793 23.5251 45.5685 23.375 45.4189C23.2248 45.2318 23.0747 45.0635 22.9246 44.9138C22.8119 44.7642 22.7556 44.521 22.7556 44.1843H25.7398C25.965 44.1843 26.1715 44.2779 26.3591 44.4649C26.5468 44.6145 26.6407 44.8203 26.6407 45.0822C26.6407 44.4836 26.941 44.1843 27.5415 44.1843H32.8342C34.0354 44.1843 35.1614 44.4088 36.2125 44.8577C37.2635 45.3066 38.1831 45.9239 38.9714 46.7095C39.7597 47.4577 40.379 48.3556 40.8295 49.403C41.2799 50.4505 41.5239 51.5541 41.5614 52.7138V58.8304ZM27.0348 62.9829C27.0348 62.721 27.016 62.4779 26.9785 62.2534C26.9785 61.9915 26.9785 61.7484 26.9785 61.5239V60.0649C26.941 59.0922 26.9222 58.1757 26.9222 57.3153C26.9222 56.4548 26.9034 55.6505 26.8659 54.9023C26.8283 54.4908 26.8096 54.1167 26.8096 53.78C26.8096 53.4433 26.7908 53.1253 26.7533 52.8261C26.7533 52.5268 26.7345 52.2462 26.697 51.9843C26.697 51.6851 26.697 51.4419 26.697 51.2548C26.697 51.0304 26.6782 50.8246 26.6407 50.6376C26.6407 50.4505 26.6407 50.3009 26.6407 50.1886V49.852C26.6031 49.8894 26.5844 49.9268 26.5844 49.9642V50.1886C26.5844 50.3009 26.5656 50.4505 26.5281 50.6376C26.5281 50.8246 26.5281 51.0304 26.5281 51.2548C26.5281 51.4419 26.5093 51.6851 26.4718 51.9843C26.4718 52.2462 26.4718 52.5268 26.4718 52.8261C26.4342 53.1253 26.4154 53.4433 26.4154 53.78C26.4154 54.1167 26.3967 54.4908 26.3591 54.9023C26.3216 55.6505 26.3028 56.4548 26.3028 57.3153C26.3028 58.1757 26.2841 59.0922 26.2465 60.0649V61.5239C26.2465 61.7484 26.2465 61.9915 26.2465 62.2534C26.2465 62.4779 26.2278 62.721 26.1902 62.9829V68.9872C26.1902 69.1369 26.1902 69.2678 26.1902 69.38C26.2278 69.4922 26.2465 69.6232 26.2465 69.7728V71.9052C26.2465 72.3915 26.2465 72.8779 26.2465 73.3642C26.2841 73.8131 26.3028 74.2433 26.3028 74.6548C26.3028 75.0664 26.3028 75.4779 26.3028 75.8894C26.3404 76.3009 26.3591 76.7124 26.3591 77.1239C26.3967 77.311 26.4154 77.498 26.4154 77.6851C26.4154 77.8347 26.4154 78.003 26.4154 78.1901C26.4154 78.3771 26.4154 78.5455 26.4154 78.6951C26.453 78.8448 26.4718 78.9944 26.4718 79.1441C26.4718 79.4433 26.4718 79.7426 26.4718 80.0419C26.5093 80.3038 26.5281 80.5469 26.5281 80.7714C26.5281 80.9959 26.5281 81.2016 26.5281 81.3887C26.5656 81.5383 26.5844 81.6692 26.5844 81.7815V82.062C26.5844 82.0994 26.6031 82.1369 26.6407 82.1743V81.7815C26.6407 81.6692 26.6407 81.5383 26.6407 81.3887C26.6782 81.2016 26.697 80.9959 26.697 80.7714C26.697 80.5469 26.697 80.3038 26.697 80.0419C26.7345 79.7426 26.7533 79.4433 26.7533 79.1441C26.7908 78.9944 26.8096 78.8448 26.8096 78.6951C26.8096 78.5455 26.8096 78.3771 26.8096 78.1901C26.8096 78.003 26.8096 77.8347 26.8096 77.6851C26.8471 77.498 26.8659 77.311 26.8659 77.1239C26.8659 76.7124 26.8659 76.3009 26.8659 75.8894C26.9034 75.4779 26.9222 75.0664 26.9222 74.6548C26.9222 74.2433 26.9222 73.8131 26.9222 73.3642C26.9597 72.8779 26.9785 72.3915 26.9785 71.9052V70.5023C26.9785 70.1656 26.9973 69.9225 27.0348 69.7728V62.9829ZM38.6336 78.134C38.596 78.2462 38.5773 78.4333 38.5773 78.6951V79.7052C38.5773 79.8923 38.5585 80.0606 38.521 80.2102C38.521 80.3599 38.521 80.5095 38.521 80.6592C38.521 80.8088 38.5022 80.9397 38.4647 81.052C38.4647 81.1642 38.4647 81.2764 38.4647 81.3887V81.557C38.4271 81.5944 38.4083 81.6505 38.4083 81.7253V82.0059C38.3708 82.0433 38.352 82.0807 38.352 82.1182V82.2304C38.352 82.2678 38.3333 82.3052 38.2957 82.3426C38.2957 82.3426 38.2957 82.3613 38.2957 82.3987C38.2957 82.4361 38.277 82.4736 38.2394 82.511H38.2957C38.2957 82.511 38.3145 82.4735 38.352 82.3987C38.352 82.3987 38.3708 82.3613 38.4083 82.2865C38.4459 82.2491 38.4647 82.2117 38.4647 82.1743C38.5022 82.1369 38.521 82.0994 38.521 82.062C38.5585 82.0246 38.5773 81.9872 38.5773 81.9498C38.6148 81.9124 38.6336 81.8563 38.6336 81.7815C38.7086 81.7066 38.7462 81.6131 38.7462 81.5009C38.8213 81.3512 38.8963 81.0894 38.9714 80.7153C39.0465 80.4908 39.084 80.3412 39.084 80.2664C39.1215 80.1915 39.1403 80.1167 39.1403 80.0419C39.1403 79.9297 39.1591 79.8361 39.1966 79.7613C39.1966 79.6865 39.1966 79.6117 39.1966 79.5369C39.2341 79.4246 39.2529 79.3311 39.2529 79.2563C39.2905 79.1441 39.3092 78.9757 39.3092 78.7512C39.3468 78.5642 39.3655 78.3771 39.3655 78.1901C39.3655 78.003 39.3843 77.816 39.4218 77.6289V75.2721C39.4218 75.0851 39.4031 74.898 39.3655 74.711C39.3655 74.5239 39.3468 74.3369 39.3092 74.1498C39.3092 73.9253 39.2905 73.757 39.2529 73.6448C39.2529 73.57 39.2341 73.4951 39.1966 73.4203C39.1966 73.3081 39.1966 73.2146 39.1966 73.1397C39.1591 73.0649 39.1403 72.9901 39.1403 72.9153C39.1403 72.803 39.1215 72.7095 39.084 72.6347C39.084 72.5599 39.0652 72.4851 39.0277 72.4102C39.0277 72.3354 39.0277 72.2606 39.0277 72.1858C38.9526 71.9613 38.9151 71.8304 38.9151 71.793C38.8776 71.6807 38.8213 71.5498 38.7462 71.4002C38.7462 71.2879 38.7086 71.1944 38.6336 71.1196C38.6336 71.0074 38.596 70.9138 38.521 70.839C38.4459 70.6894 38.3896 70.5771 38.352 70.5023C38.3145 70.4649 38.2957 70.4275 38.2957 70.3901H38.2394C38.2394 70.3901 38.2582 70.4275 38.2957 70.5023C38.2957 70.5397 38.2957 70.5771 38.2957 70.6146C38.3333 70.6146 38.352 70.6333 38.352 70.6707C38.352 70.7455 38.3708 70.8203 38.4083 70.8951V71.1757C38.4459 71.2505 38.4647 71.344 38.4647 71.4563C38.4647 71.6433 38.4834 71.7743 38.521 71.8491V72.2419C38.5585 72.3915 38.5773 72.5412 38.5773 72.6908C38.5773 72.8405 38.5773 73.0088 38.5773 73.1959V73.7009C38.5773 73.7757 38.5773 73.8692 38.5773 73.9815C38.6148 74.0563 38.6336 74.1311 38.6336 74.2059V78.134ZM36.3251 75.6649C36.3251 75.1786 36.3063 74.4865 36.2688 73.5887C36.2312 72.6908 36.0999 71.793 35.8746 70.8951C35.6494 69.9973 35.2928 69.2304 34.8048 68.5944C34.3544 67.921 33.6788 67.5843 32.7779 67.5843H30.7509C30.338 67.5843 29.9814 67.734 29.6811 68.0333C29.3808 68.3325 29.2307 68.6879 29.2307 69.0994V83.6894C29.2307 84.1009 29.3808 84.4563 29.6811 84.7556C29.9814 85.0174 30.338 85.1671 30.7509 85.2045H32.7779C33.6788 85.2045 34.3544 84.98 34.8048 84.5311C35.2928 84.0448 35.6494 83.4836 35.8746 82.8476C36.0999 82.2117 36.2312 81.5383 36.2688 80.8275C36.3063 80.1167 36.3251 79.5182 36.3251 79.0318V75.6649ZM36.3251 52.9383C36.3251 52.452 36.3063 51.8721 36.2688 51.1987C36.2312 50.4879 36.0999 49.8145 35.8746 49.1786C35.6494 48.5426 35.2928 48.0002 34.8048 47.5512C34.3544 47.0649 33.6788 46.8217 32.7779 46.8217H30.7509C30.338 46.8217 29.9814 46.9714 29.6811 47.2707C29.3808 47.5699 29.2307 47.9253 29.2307 48.3368V63.4318C29.2307 63.8433 29.3808 64.1987 29.6811 64.498C29.9814 64.7973 30.338 64.9469 30.7509 64.9469H32.7779C33.6788 64.9469 34.3544 64.7225 34.8048 64.2735C35.2928 63.8246 35.6494 63.2822 35.8746 62.6462C36.0999 61.9728 36.2312 61.2994 36.2688 60.6261C36.3063 59.9153 36.3251 59.3167 36.3251 58.8304V52.9383ZM38.8588 60.3455C38.9339 60.121 38.9714 59.9714 38.9714 59.8966C39.0465 59.7469 39.084 59.5973 39.084 59.4476C39.1215 59.3728 39.1403 59.298 39.1403 59.2232C39.1403 59.111 39.1591 59.0174 39.1966 58.9426C39.1966 58.8678 39.1966 58.793 39.1966 58.7181C39.2341 58.6059 39.2529 58.4937 39.2529 58.3815C39.2905 58.2692 39.3092 58.0822 39.3092 57.8203C39.3468 57.6333 39.3655 57.4462 39.3655 57.2592C39.3655 57.0721 39.3843 56.8851 39.4218 56.698V55.4635C39.4218 55.052 39.4218 54.6592 39.4218 54.285C39.4218 53.8735 39.4031 53.4807 39.3655 53.1066C39.328 52.9944 39.3092 52.9009 39.3092 52.8261C39.3092 52.7138 39.2905 52.6203 39.2529 52.5455C39.2529 52.2836 39.2341 52.0966 39.1966 51.9843C39.1591 51.7973 39.1215 51.6289 39.084 51.4793C39.084 51.3297 39.0652 51.18 39.0277 51.0304C38.9526 50.8059 38.9151 50.6563 38.9151 50.5815C38.84 50.4318 38.8025 50.3196 38.8025 50.2448C38.7274 50.0951 38.6711 49.9829 38.6336 49.9081C38.6336 49.7958 38.596 49.7023 38.521 49.6275C38.4834 49.5153 38.4271 49.3843 38.352 49.2347L38.2394 49.1225V49.1786C38.2394 49.216 38.2394 49.2347 38.2394 49.2347C38.277 49.2347 38.2957 49.2534 38.2957 49.2908C38.3333 49.3282 38.352 49.3843 38.352 49.4592C38.352 49.534 38.3708 49.6088 38.4083 49.6836V49.9642C38.4459 50.039 38.4647 50.1512 38.4647 50.3009C38.4647 50.3757 38.4647 50.4505 38.4647 50.5253C38.5022 50.5627 38.521 50.6189 38.521 50.6937V51.0865C38.5585 51.2361 38.5773 51.3858 38.5773 51.5354C38.5773 51.6851 38.5773 51.8534 38.5773 52.0404V52.6016C38.5773 52.6764 38.5773 52.7699 38.5773 52.8822C38.6148 52.957 38.6336 53.0318 38.6336 53.1066V57.2592C38.596 57.3714 38.5773 57.5584 38.5773 57.8203V58.8865C38.5773 59.0735 38.5585 59.2419 38.521 59.3915C38.521 59.5412 38.521 59.6908 38.521 59.8404C38.521 59.9901 38.5022 60.1397 38.4647 60.2894C38.4647 60.4016 38.4647 60.5138 38.4647 60.6261C38.4647 60.8131 38.4459 60.9253 38.4083 60.9627V61.2994C38.3708 61.2994 38.352 61.3369 38.352 61.4117V61.5239C38.352 61.5613 38.3333 61.5987 38.2957 61.6361C38.2957 61.6361 38.2957 61.6548 38.2957 61.6922C38.2957 61.7297 38.277 61.7671 38.2394 61.8045L38.352 61.6922C38.352 61.6548 38.352 61.6361 38.352 61.6361C38.3896 61.5987 38.4083 61.5613 38.4083 61.5239C38.4459 61.5239 38.4647 61.4865 38.4647 61.4117C38.5022 61.4117 38.521 61.3743 38.521 61.2994C38.5585 61.2994 38.5773 61.262 38.5773 61.1872C38.6148 61.1498 38.6336 61.0937 38.6336 61.0189C38.7086 60.944 38.7462 60.8505 38.7462 60.7383C38.8213 60.5138 38.8588 60.3829 38.8588 60.3455Z" fill="#F4EDE8"/>
<path d="M62.8582 82.6232C63.0084 83.2592 63.1773 83.7268 63.365 84.0261C63.5527 84.3253 63.7403 84.5685 63.928 84.7556C64.1157 84.9426 64.2846 85.111 64.4348 85.2606C64.5849 85.4102 64.6975 85.6534 64.7726 85.9901H61.7884C61.5257 85.9901 61.2817 85.8966 61.0565 85.7095C60.8688 85.5225 60.7562 85.298 60.7187 85.0361C60.7562 85.298 60.6999 85.5225 60.5497 85.7095C60.3996 85.8966 60.2119 85.9901 59.9867 85.9901H57.0025C56.9275 85.6534 56.9462 85.4102 57.0588 85.2606C57.1715 85.111 57.2841 84.9613 57.3967 84.8117C57.5093 84.6246 57.6031 84.3815 57.6782 84.0822C57.7533 83.7455 57.7345 83.2405 57.6219 82.5671V82.511L56.3832 76.17C56.3081 75.7958 56.1017 75.4779 55.7638 75.216C55.426 74.9167 55.0506 74.7671 54.6377 74.7671H50.7527C50.3398 74.7671 49.9644 74.9167 49.6266 75.216C49.2888 75.4779 49.0823 75.7958 49.0073 76.17L47.8249 82.511V82.5671C47.7123 83.2405 47.6747 83.7455 47.7123 84.0822C47.7873 84.3815 47.8812 84.6246 47.9938 84.8117C48.1439 84.9613 48.2565 85.111 48.3316 85.2606C48.4442 85.4102 48.4818 85.6534 48.4442 85.9901H45.4601C45.1973 85.9901 44.9909 85.8966 44.8407 85.7095C44.6906 85.5225 44.6343 85.298 44.6718 85.0361C44.6343 85.298 44.5217 85.5225 44.334 85.7095C44.1463 85.8966 43.9211 85.9901 43.6583 85.9901H40.6742C40.7117 85.6534 40.8056 85.4102 40.9557 85.2606C41.1058 85.111 41.2748 84.9426 41.4624 84.7556C41.6501 84.5685 41.8378 84.3253 42.0255 84.0261C42.2132 83.7268 42.3821 83.2592 42.5322 82.6232L45.0659 68.9872C45.141 68.4635 45.0847 67.9771 44.897 67.5282C44.7093 67.0793 44.4091 66.7239 43.9962 66.462C44.5967 66.2002 45.141 66.0692 45.629 66.0692L48.6694 50.0764C48.7821 49.4404 48.8008 48.9728 48.7258 48.6735C48.6507 48.3368 48.5568 48.0937 48.4442 47.944C48.3316 47.757 48.219 47.5886 48.1064 47.439C47.9938 47.2894 47.975 47.0462 48.0501 46.7095H51.8225C52.3855 46.7843 52.6671 47.1023 52.6671 47.6635C52.6671 47.4016 52.7421 47.1958 52.8923 47.0462C53.08 46.8591 53.2864 46.7469 53.5116 46.7095H57.3404C57.4154 47.0462 57.3967 47.2894 57.2841 47.439C57.209 47.5886 57.1151 47.757 57.0025 47.944C56.8899 48.0937 56.7961 48.3368 56.721 48.6735C56.6459 48.9728 56.6647 49.4404 56.7773 50.0764L59.7615 66.0692C60.0618 66.0692 60.3433 66.1066 60.606 66.1815C60.8688 66.2563 61.1316 66.3498 61.3943 66.462C60.5685 66.9858 60.2119 67.8275 60.3245 68.9872L62.8582 82.6232ZM49.3451 62.534C49.4202 62.3095 49.4577 62.1038 49.4577 61.9167C49.4952 61.6922 49.5328 61.4865 49.5703 61.2994C49.758 60.439 49.9081 59.6347 50.0208 58.8865C50.1334 58.1009 50.246 57.3901 50.3586 56.7541C50.4337 56.4548 50.4712 56.1556 50.4712 55.8563C50.5087 55.557 50.5463 55.2577 50.5838 54.9584C50.6213 54.6966 50.6589 54.4534 50.6964 54.2289C50.734 54.0045 50.7715 53.7987 50.809 53.6117C50.8466 53.4246 50.8653 53.2563 50.8653 53.1066C50.8653 52.9196 50.8841 52.7699 50.9216 52.6577V52.4332L50.8653 52.6577C50.8278 52.7699 50.7903 52.9009 50.7527 53.0505C50.7152 53.2002 50.6776 53.3685 50.6401 53.5556C50.565 53.7426 50.5087 53.9671 50.4712 54.2289C50.4337 54.4534 50.3774 54.6779 50.3023 54.9023C50.2272 55.2016 50.1521 55.5009 50.0771 55.8002C50.0395 56.0994 49.9832 56.3987 49.9081 56.698C49.7205 57.334 49.5328 58.0261 49.3451 58.7743C49.195 59.4851 49.026 60.2707 48.8384 61.1311C48.8384 61.3556 48.8196 61.5613 48.7821 61.7484C48.7445 61.9354 48.6882 62.1412 48.6131 62.3656C48.5756 62.5901 48.5381 62.8145 48.5005 63.039C48.463 63.2261 48.4254 63.4318 48.3879 63.6563C48.2753 64.0678 48.1627 64.498 48.0501 64.9469C47.975 65.3958 47.8999 65.8448 47.8249 66.2937C47.7498 66.7052 47.656 67.1354 47.5433 67.5843C47.4683 68.0333 47.3932 68.4635 47.3181 68.875C47.2806 68.9872 47.2618 69.0994 47.2618 69.2117C47.2618 69.2865 47.2431 69.38 47.2055 69.4923C47.1304 69.7915 47.0929 70.016 47.0929 70.1656C46.9803 70.5397 46.9052 70.9512 46.8677 71.4002C46.7926 71.8117 46.7175 72.2232 46.6425 72.6347C46.5674 73.0462 46.5111 73.4203 46.4736 73.757C46.3609 74.6174 46.2483 75.3282 46.1357 75.8894C46.0607 76.1887 46.0044 76.4879 45.9668 76.7872C45.9293 77.0865 45.8917 77.3858 45.8542 77.6851C45.7791 77.9469 45.7228 78.2088 45.6853 78.4707C45.6853 78.6951 45.6665 78.9009 45.629 79.0879C45.5915 79.275 45.5727 79.4433 45.5727 79.593C45.5727 79.7426 45.5539 79.8736 45.5164 79.9858C45.5164 80.0606 45.4976 80.1167 45.4601 80.1541C45.4601 80.1541 45.4601 80.1728 45.4601 80.2102V80.2664C45.4976 80.2664 45.5164 80.2477 45.5164 80.2102C45.5164 80.1354 45.5351 80.0606 45.5727 79.9858C45.6102 79.911 45.629 79.7987 45.629 79.6491C45.6665 79.462 45.7228 79.275 45.7979 79.0879C45.873 78.9009 45.9293 78.6951 45.9668 78.4707C46.0419 78.2462 46.117 78.003 46.192 77.7412C46.2671 77.4793 46.3234 77.1987 46.3609 76.8994C46.436 76.6002 46.4923 76.3009 46.5299 76.0016C46.6049 75.7023 46.68 75.3843 46.7551 75.0476C46.8677 74.6735 46.9615 74.2994 47.0366 73.9253C47.1117 73.5512 47.1868 73.1584 47.2618 72.7469C47.3744 72.3354 47.487 71.9239 47.5997 71.5124C47.6372 71.3253 47.6747 71.1383 47.7123 70.9512C47.7498 70.7268 47.7873 70.521 47.8249 70.334L47.9938 69.6606C48.0313 69.5484 48.0501 69.4361 48.0501 69.3239C48.0501 69.2117 48.0689 69.0994 48.1064 68.9872C48.1815 68.5757 48.2753 68.1642 48.3879 67.7527C48.5005 67.3038 48.5944 66.8548 48.6694 66.4059C48.7445 65.9944 48.8196 65.5642 48.8947 65.1153C48.9697 64.6663 49.0448 64.2361 49.1199 63.8246C49.1574 63.6002 49.195 63.3757 49.2325 63.1512C49.27 62.9268 49.3076 62.721 49.3451 62.534ZM54.131 72.1297C54.5439 72.0923 54.863 71.9426 55.0882 71.6807C55.3509 71.3815 55.4448 71.0261 55.3697 70.6146L55.0319 68.9872C54.8817 68.4635 54.619 67.9771 54.2436 67.5282C53.9058 67.0793 53.4929 66.7239 53.0049 66.462C53.4553 66.2002 53.9433 66.0692 54.4688 66.0692L52.6671 56.4735L50.8653 66.0692C51.3533 66.0692 51.86 66.2002 52.3856 66.462C51.86 66.7239 51.4096 67.0793 51.0342 67.5282C50.6964 67.9771 50.4712 68.4635 50.3586 68.9872L50.0771 70.6146C50.002 71.0261 50.0771 71.3815 50.3023 71.6807C50.5275 71.9426 50.8278 72.0923 51.2032 72.1297H54.131ZM59.8178 79.9858C59.8178 80.0606 59.8178 80.1167 59.8178 80.1541C59.8553 80.1541 59.8741 80.1728 59.8741 80.2102V79.9858C59.8365 79.8736 59.8178 79.7426 59.8178 79.593C59.8178 79.4433 59.799 79.275 59.7615 79.0879C59.7239 78.9009 59.6864 78.6951 59.6489 78.4707C59.6489 78.2088 59.6113 77.9469 59.5363 77.6851C59.4987 77.3858 59.4612 77.0865 59.4236 76.7872C59.3861 76.4879 59.3298 76.1887 59.2547 75.8894C59.1421 75.3282 59.0295 74.6174 58.9169 73.757C58.8418 73.4203 58.7668 73.0462 58.6917 72.6347C58.6541 72.2232 58.5978 71.8117 58.5228 71.4002C58.4477 71.1757 58.3914 70.9699 58.3538 70.7829C58.3538 70.5958 58.3163 70.3901 58.2412 70.1656C58.2412 70.016 58.2037 69.7915 58.1286 69.4923C58.1286 69.38 58.1099 69.2865 58.0723 69.2117C58.0723 69.0994 58.0723 68.9872 58.0723 68.875C57.9973 68.4635 57.9034 68.0333 57.7908 67.5843C57.7157 67.1354 57.6407 66.7052 57.5656 66.2937C57.4905 65.8448 57.3967 65.3958 57.2841 64.9469C57.209 64.498 57.1151 64.0678 57.0025 63.6563C56.965 63.4318 56.9275 63.2261 56.8899 63.039C56.8524 62.8145 56.8149 62.5901 56.7773 62.3656C56.7022 62.1412 56.6459 61.9354 56.6084 61.7484C56.5709 61.5613 56.5333 61.3556 56.4958 61.1311C56.3081 60.2707 56.1204 59.4851 55.9328 58.7743C55.7826 58.0261 55.6512 57.334 55.5386 56.698C55.4635 56.3987 55.3885 56.0994 55.3134 55.8002C55.2383 55.5009 55.1632 55.2016 55.0882 54.9023C55.0131 54.6779 54.938 54.4534 54.863 54.2289C54.8254 53.9671 54.7691 53.7426 54.694 53.5556C54.6565 53.3685 54.619 53.2002 54.5814 53.0505C54.5439 52.9009 54.5064 52.7699 54.4688 52.6577L54.4125 52.4332V52.6577C54.4501 52.8448 54.5064 53.1627 54.5814 53.6117C54.5814 53.7987 54.6002 54.0045 54.6377 54.2289C54.6753 54.4534 54.7128 54.6966 54.7503 54.9584C54.7879 55.2577 54.8254 55.557 54.863 55.8563C54.9005 56.1556 54.9568 56.4548 55.0319 56.7541C55.1445 57.3901 55.2571 58.1009 55.3697 58.8865C55.4823 59.6347 55.6137 60.439 55.7638 61.2994C55.8014 61.4865 55.8201 61.6922 55.8201 61.9167C55.8577 62.1038 55.914 62.3095 55.9891 62.534C56.0266 62.721 56.0641 62.9268 56.1017 63.1512C56.1392 63.3757 56.1767 63.6002 56.2143 63.8246C56.2893 64.2361 56.3644 64.6663 56.4395 65.1153C56.5521 65.5642 56.6459 65.9944 56.721 66.4059C56.7961 66.8548 56.8899 67.3038 57.0025 67.7527C57.1151 68.1642 57.209 68.5757 57.2841 68.9872C57.3216 69.0994 57.3404 69.2117 57.3404 69.3239C57.3404 69.4361 57.3591 69.5484 57.3967 69.6606L57.5656 70.334C57.6031 70.521 57.6407 70.7268 57.6782 70.9512C57.7157 71.1383 57.7533 71.3253 57.7908 71.5124C57.9034 71.9239 57.9973 72.3354 58.0723 72.7469C58.1474 73.1584 58.2225 73.5512 58.2975 73.9253C58.3726 74.2994 58.4477 74.6735 58.5228 75.0476C58.6354 75.3843 58.7292 75.7023 58.8043 76.0016C58.8794 76.3009 58.9544 76.6002 59.0295 76.8994C59.1046 77.1987 59.1797 77.4793 59.2547 77.7412C59.3673 78.2649 59.4799 78.7138 59.5926 79.0879C59.6676 79.275 59.7052 79.462 59.7052 79.6491C59.7427 79.7987 59.7802 79.911 59.8178 79.9858Z" fill="#F4EDE8"/>
<path d="M86.482 88.3469C86.8949 88.4218 87.1764 88.5527 87.3266 88.7397C87.5143 88.9268 87.6456 89.1138 87.7207 89.3009C87.7958 89.5253 87.8333 89.7685 87.8333 90.0304C86.6322 90.0304 85.5061 89.8807 84.455 89.5815C83.404 89.2822 82.4656 88.7959 81.6398 88.1225C80.8515 87.4491 80.2134 86.57 79.7254 85.4851C79.275 84.4002 79.0498 83.0721 79.0498 81.5009V73.8131C79.0498 73.3268 79.031 72.7282 78.9935 72.0174C78.9559 71.3066 78.8246 70.6333 78.5994 69.9973C78.3741 69.3613 78.0175 68.8189 77.5296 68.3699C77.0791 67.8836 76.4035 67.6405 75.5026 67.6405H73.1941C72.8563 67.7153 72.556 67.9023 72.2932 68.2016C72.068 68.4635 71.9554 68.7815 71.9554 69.1556V82.5671C71.9554 83.2405 72.0117 83.7455 72.1243 84.0822C72.2745 84.3815 72.4246 84.6246 72.5747 84.8117C72.7249 84.9613 72.8563 85.111 72.9689 85.2606C73.119 85.4102 73.1941 85.6534 73.1941 85.9901H70.21C69.9847 85.9901 69.7783 85.8966 69.5906 85.7095C69.4029 85.5225 69.3091 85.3167 69.3091 85.0923C69.3091 85.3167 69.2152 85.5225 69.0276 85.7095C68.8774 85.8966 68.671 85.9901 68.4082 85.9901H65.4804C65.4804 85.6534 65.5367 85.4102 65.6493 85.2606C65.7994 85.111 65.9496 84.9613 66.0997 84.8117C66.2499 84.6246 66.3812 84.3815 66.4938 84.0822C66.644 83.7829 66.7191 83.3153 66.7191 82.6793V68.9872C66.6065 67.8275 66.0809 66.9858 65.1425 66.462C65.5554 66.2002 66.0809 66.0692 66.7191 66.0692V50.0203C66.7191 49.3843 66.644 48.9167 66.4938 48.6174C66.3812 48.3181 66.2499 48.0937 66.0997 47.944C65.9496 47.757 65.7994 47.5886 65.6493 47.439C65.5367 47.2894 65.4804 47.0462 65.4804 46.7095H68.4645C68.6897 46.7095 68.8962 46.803 69.0839 46.9901C69.2715 47.1397 69.3654 47.3455 69.3654 47.6074C69.3654 47.0088 69.6657 46.7095 70.2663 46.7095H75.5589C76.7601 46.7095 77.8862 46.934 78.9372 47.3829C79.9882 47.8318 80.9079 48.4491 81.6961 49.2347C82.4844 49.9829 83.1037 50.8807 83.5542 51.9282C84.0046 52.9757 84.2486 54.0793 84.2861 55.239V58.8865C84.2861 60.4577 83.9108 61.898 83.16 63.2074C82.4093 64.5167 81.3958 65.5642 80.1196 66.3498C81.3958 67.098 82.4093 68.1455 83.16 69.4923C83.9108 70.8016 84.2861 72.2419 84.2861 73.8131V81.2764C84.2861 82.062 84.2861 82.8664 84.2861 83.6894C84.3237 84.475 84.4175 85.2045 84.5676 85.8779C84.7178 86.5138 84.943 87.0563 85.2433 87.5052C85.5436 87.9541 85.9565 88.2347 86.482 88.3469ZM81.3583 57.9325C81.3207 58.0074 81.302 58.1009 81.302 58.2131V59.5038C81.2644 59.6534 81.2457 59.803 81.2457 59.9527C81.2457 60.0649 81.2457 60.1771 81.2457 60.2894C81.2457 60.3642 81.2269 60.4203 81.1894 60.4577C81.1894 60.4951 81.1894 60.5512 81.1894 60.6261V60.9627C81.1518 61.0376 81.1331 61.1311 81.1331 61.2433C81.1331 61.3181 81.1143 61.393 81.0768 61.4678C81.0768 61.5426 81.058 61.5987 81.0205 61.6361V61.7484L80.9641 61.8606C80.9641 61.8606 81.0017 61.8419 81.0768 61.8045V61.7484L81.1331 61.6922C81.1706 61.6548 81.1894 61.6361 81.1894 61.6361C81.1894 61.5987 81.2081 61.5613 81.2457 61.5239C81.2832 61.4491 81.3207 61.3743 81.3583 61.2994C81.3958 61.1872 81.4334 61.0937 81.4709 61.0189C81.5084 60.944 81.5272 60.9066 81.5272 60.9066C81.5272 60.8692 81.546 60.8131 81.5835 60.7383C81.621 60.6635 81.6398 60.6074 81.6398 60.5699C81.6398 60.4951 81.6586 60.4203 81.6961 60.3455C81.7337 60.2707 81.7524 60.2145 81.7524 60.1771C81.7524 60.1397 81.7712 60.0836 81.8087 60.0088C81.8087 59.934 81.8087 59.8779 81.8087 59.8404C81.8463 59.7656 81.865 59.6908 81.865 59.616C81.9026 59.4663 81.9213 59.3167 81.9213 59.1671C81.9589 59.0174 81.9964 58.8678 82.0339 58.7181C82.0715 58.6059 82.0902 58.4376 82.0902 58.2131C82.0902 58.1383 82.0902 58.0635 82.0902 57.9886C82.1278 57.9138 82.1465 57.839 82.1465 57.7642V55.8002C82.1465 55.5757 82.1278 55.4074 82.0902 55.2951V55.0707C82.0902 54.9958 82.0715 54.9584 82.0339 54.9584C82.0339 54.921 82.0339 54.8649 82.0339 54.7901C82.0339 54.603 81.9964 54.3225 81.9213 53.9484C81.8838 53.8735 81.865 53.7987 81.865 53.7239C81.865 53.6491 81.8463 53.5743 81.8087 53.4994C81.8087 53.462 81.79 53.4433 81.7524 53.4433C81.7524 53.4059 81.7524 53.3685 81.7524 53.3311C81.7524 53.2937 81.7337 53.275 81.6961 53.275C81.6961 53.2376 81.6961 53.2002 81.6961 53.1627C81.6586 53.0879 81.6398 53.0318 81.6398 52.9944C81.6398 52.957 81.621 52.9009 81.5835 52.8261C81.546 52.7512 81.5272 52.6951 81.5272 52.6577C81.5272 52.6203 81.5084 52.5642 81.4709 52.4894C81.4334 52.452 81.4146 52.4145 81.4146 52.3771C81.4146 52.3397 81.3958 52.3023 81.3583 52.2649C81.2832 52.1153 81.2457 52.0404 81.2457 52.0404C81.2081 52.003 81.1894 51.9843 81.1894 51.9843C81.1894 51.9469 81.1706 51.9095 81.1331 51.8721C81.0955 51.8347 81.0768 51.7973 81.0768 51.7599C81.0392 51.7225 81.0205 51.685 81.0205 51.6476H80.9641C80.9641 51.6476 80.9829 51.685 81.0205 51.7599V51.8721C81.058 51.9095 81.0768 51.9843 81.0768 52.0966C81.0768 52.134 81.0768 52.1714 81.0768 52.2088C81.1143 52.2088 81.1331 52.2462 81.1331 52.321C81.1331 52.4333 81.1518 52.5268 81.1894 52.6016V52.8822C81.1894 52.957 81.1894 53.0131 81.1894 53.0505C81.2269 53.0879 81.2457 53.144 81.2457 53.2189C81.2457 53.5556 81.2644 53.8174 81.302 54.0045V54.9023C81.3395 55.0894 81.3583 55.3886 81.3583 55.8002V57.9325ZM69.7595 63.7124C69.7595 63.5253 69.7407 63.3196 69.7032 63.0951C69.7032 62.8707 69.7032 62.6462 69.7032 62.4217V61.1872C69.6657 60.3642 69.6469 59.5786 69.6469 58.8304C69.6469 58.0822 69.6281 57.3714 69.5906 56.698C69.5531 56.3987 69.5343 56.0994 69.5343 55.8002C69.5343 55.5009 69.5155 55.2203 69.478 54.9584C69.478 54.6592 69.4592 54.3973 69.4217 54.1728C69.4217 53.9484 69.4217 53.7426 69.4217 53.5556C69.4217 53.3685 69.4029 53.2002 69.3654 53.0505C69.3654 52.9009 69.3654 52.7699 69.3654 52.6577V52.3771C69.3278 52.3771 69.3091 52.3958 69.3091 52.4332V52.6577C69.3091 52.7699 69.2903 52.9009 69.2528 53.0505C69.2528 53.2002 69.2528 53.3685 69.2528 53.5556C69.2528 53.7426 69.234 53.9484 69.1965 54.1728C69.1965 54.3973 69.1965 54.6592 69.1965 54.9584C69.1589 55.2203 69.1402 55.5009 69.1402 55.8002C69.1402 56.0994 69.1214 56.3987 69.0839 56.698C69.0463 57.3714 69.0276 58.0822 69.0276 58.8304C69.0276 59.5786 69.0088 60.3642 68.9712 61.1872V62.4217C68.9712 62.6462 68.9525 62.8707 68.9149 63.0951C68.9149 63.3196 68.9149 63.5253 68.9149 63.7124V68.9311C68.9149 69.2304 68.9337 69.4548 68.9712 69.6045V71.4563C68.9712 71.8678 68.9712 72.2793 68.9712 72.6908C69.0088 73.0649 69.0276 73.439 69.0276 73.8131C69.0276 74.2246 69.0276 74.5987 69.0276 74.9354C69.0651 75.2721 69.0839 75.6088 69.0839 75.9455C69.1214 76.2822 69.1402 76.6002 69.1402 76.8994C69.1402 77.1613 69.1589 77.4419 69.1965 77.7412C69.1965 78.003 69.1965 78.2462 69.1965 78.4707C69.234 78.6951 69.2528 78.9009 69.2528 79.0879C69.2528 79.275 69.2528 79.462 69.2528 79.6491C69.2903 79.7987 69.3091 79.911 69.3091 79.9858V80.2664C69.3091 80.3038 69.3278 80.3225 69.3654 80.3225V79.9858C69.3654 79.911 69.3654 79.7987 69.3654 79.6491C69.4029 79.462 69.4217 79.275 69.4217 79.0879C69.4217 78.9009 69.4217 78.6951 69.4217 78.4707C69.4592 78.2462 69.478 78.003 69.478 77.7412C69.5155 77.4419 69.5343 77.1613 69.5343 76.8994C69.5343 76.6002 69.5531 76.2822 69.5906 75.9455C69.5906 75.6088 69.5906 75.2721 69.5906 74.9354C69.6281 74.5987 69.6469 74.2246 69.6469 73.8131C69.6469 73.439 69.6469 73.0649 69.6469 72.6908C69.6844 72.2793 69.7032 71.8678 69.7032 71.4563V70.2217C69.7032 69.9225 69.722 69.7167 69.7595 69.6045V63.7124ZM79.0498 55.4635C79.0498 54.9771 79.031 54.3786 78.9935 53.6678C78.9559 52.957 78.8246 52.2836 78.5994 51.6476C78.3741 51.0117 78.0175 50.4692 77.5296 50.0203C77.0791 49.534 76.4035 49.2908 75.5026 49.2908H73.4756C73.0627 49.3282 72.7061 49.4966 72.4058 49.7958C72.1055 50.0951 71.9554 50.4505 71.9554 50.862V63.4879C71.9554 63.8994 72.1055 64.2548 72.4058 64.5541C72.7061 64.8534 73.0627 65.003 73.4756 65.003H75.5026C76.4035 65.003 77.0791 64.7786 77.5296 64.3297C78.0175 63.8807 78.3741 63.3383 78.5994 62.7023C78.8246 62.0289 78.9559 61.3556 78.9935 60.6822C79.031 59.9714 79.0498 59.3728 79.0498 58.8865V55.4635ZM82.8222 86.2146C82.8222 86.2146 82.8034 86.1959 82.7659 86.1584L82.7096 86.1023C82.6721 86.0275 82.6345 85.9527 82.597 85.8779C82.597 85.803 82.5594 85.7282 82.4844 85.6534C82.4468 85.5412 82.4093 85.4289 82.3718 85.3167C82.3342 85.1671 82.2967 84.9987 82.2592 84.8117C82.1841 84.4376 82.1465 84.0822 82.1465 83.7455C82.109 83.5584 82.0902 83.3714 82.0902 83.1843C82.0902 82.9599 82.0902 82.7167 82.0902 82.4548V79.4807C82.0902 79.2189 82.0902 78.957 82.0902 78.6951C82.0902 78.4333 82.109 78.1527 82.1465 77.8534C82.1465 77.5915 82.1465 77.3297 82.1465 77.0678C82.1465 76.8059 82.1278 76.544 82.0902 76.2822V75.4966C82.0902 75.1225 82.0715 74.8606 82.0339 74.711C82.0339 74.4491 82.0152 74.2059 81.9776 73.9815C81.9776 73.7196 81.9589 73.4764 81.9213 73.252C81.8463 72.7282 81.7712 72.2793 81.6961 71.9052C81.6586 71.7182 81.621 71.5498 81.5835 71.4002C81.546 71.2131 81.4897 71.0261 81.4146 70.839C81.3395 70.652 81.2832 70.5023 81.2457 70.3901C81.2081 70.2779 81.1518 70.1656 81.0768 70.0534C81.0017 69.9412 80.9454 69.8476 80.9078 69.7728C80.8703 69.698 80.8328 69.6232 80.7952 69.5484C80.7577 69.5484 80.7202 69.5297 80.6826 69.4923C80.6451 69.4923 80.6263 69.4735 80.6263 69.4361L80.6826 69.4923C80.6826 69.5297 80.7014 69.5671 80.7389 69.6045C80.7389 69.6419 80.7389 69.6793 80.7389 69.7167C80.7765 69.7167 80.7952 69.7541 80.7952 69.8289C80.8328 69.8664 80.8515 69.9038 80.8515 69.9412C80.8515 69.9786 80.8703 70.0347 80.9078 70.1095C80.9454 70.2592 81.0017 70.521 81.0768 70.8951C81.1143 71.0822 81.1331 71.2692 81.1331 71.4563C81.1706 71.6433 81.2081 71.8304 81.2457 72.0174C81.2457 72.2045 81.2457 72.4102 81.2457 72.6347C81.2832 72.8217 81.302 73.0462 81.302 73.3081V80.2664C81.302 80.416 81.302 80.5469 81.302 80.6592C81.3395 80.7714 81.3583 80.9023 81.3583 81.052C81.3583 81.3138 81.3583 81.5757 81.3583 81.8376C81.3958 82.062 81.4334 82.2865 81.4709 82.511C81.5084 82.7354 81.5272 82.9599 81.5272 83.1843C81.5647 83.4088 81.6023 83.6146 81.6398 83.8016C81.7149 84.0261 81.7712 84.2318 81.8087 84.4189C81.8463 84.5685 81.9026 84.7369 81.9776 84.9239C82.0527 85.111 82.109 85.2606 82.1465 85.3728C82.1841 85.4851 82.2404 85.5973 82.3155 85.7095L82.4281 85.8218C82.4656 85.8592 82.4844 85.8966 82.4844 85.934C82.4844 85.934 82.5031 85.9527 82.5407 85.9901L82.7659 86.2146H82.8222Z" fill="#F4EDE8"/>
<path d="M103.365 58.8865C103.365 60.4577 102.989 61.898 102.239 63.2074C101.488 64.5167 100.474 65.5642 99.1981 66.3498C100.474 67.098 101.488 68.1455 102.239 69.4923C102.989 70.8016 103.365 72.2419 103.365 73.8131V77.4606C103.327 78.6577 103.083 79.78 102.633 80.8275C102.182 81.8376 101.563 82.7354 100.775 83.521C99.9863 84.2692 99.0667 84.8678 98.0157 85.3167C96.9647 85.7656 95.8386 85.9901 94.6374 85.9901H89.2884C89.0632 85.9901 88.8568 85.8966 88.6691 85.7095C88.4814 85.5225 88.3876 85.3167 88.3876 85.0923C88.3876 85.3167 88.2937 85.5225 88.106 85.7095C87.9559 85.8966 87.7495 85.9901 87.4867 85.9901H84.5588C84.5588 85.6534 84.6152 85.4102 84.7278 85.2606C84.8779 85.111 85.0281 84.9613 85.1782 84.8117C85.3284 84.6246 85.4597 84.3815 85.5723 84.0822C85.7225 83.7829 85.7976 83.3153 85.7976 82.6793V68.9872C85.6849 67.8275 85.1594 66.9858 84.221 66.462C84.6339 66.2002 85.1594 66.0692 85.7976 66.0692V50.0203C85.7976 49.3843 85.7225 48.9167 85.5723 48.6174C85.4597 48.3181 85.3284 48.0937 85.1782 47.944C85.0281 47.757 84.8779 47.5886 84.7278 47.439C84.6152 47.2894 84.5588 47.0462 84.5588 46.7095H87.543C87.7682 46.7095 87.9747 46.803 88.1624 46.9901C88.35 47.1397 88.4439 47.3455 88.4439 47.6074C88.4439 47.0088 88.7442 46.7095 89.3448 46.7095H94.6374C95.8386 46.7095 96.9647 46.934 98.0157 47.3829C99.0667 47.8318 99.9863 48.4491 100.775 49.2347C101.563 49.9829 102.182 50.8807 102.633 51.9282C103.083 52.9757 103.327 54.0793 103.365 55.239V58.8865ZM88.838 63.7124C88.838 63.5253 88.8192 63.3196 88.7817 63.0951C88.7817 62.8707 88.7817 62.6462 88.7817 62.4217V61.1872C88.7442 60.3642 88.7254 59.5786 88.7254 58.8304C88.7254 58.0822 88.7066 57.3714 88.6691 56.698C88.6316 56.3987 88.6128 56.0994 88.6128 55.8002C88.6128 55.5009 88.594 55.2203 88.5565 54.9584C88.5565 54.6592 88.5377 54.3973 88.5002 54.1728C88.5002 53.9484 88.5002 53.7426 88.5002 53.5556C88.5002 53.3685 88.4814 53.2002 88.4439 53.0505C88.4439 52.9009 88.4439 52.7699 88.4439 52.6577V52.3771C88.4063 52.3771 88.3876 52.3958 88.3876 52.4332V52.6577C88.3876 52.7699 88.3688 52.9009 88.3313 53.0505C88.3313 53.2002 88.3313 53.3685 88.3313 53.5556C88.3313 53.7426 88.3125 53.9484 88.275 54.1728C88.275 54.3973 88.275 54.6592 88.275 54.9584C88.2374 55.2203 88.2187 55.5009 88.2187 55.8002C88.2187 56.0994 88.1999 56.3987 88.1624 56.698C88.1248 57.3714 88.106 58.0822 88.106 58.8304C88.106 59.5786 88.0873 60.3642 88.0497 61.1872V62.4217C88.0497 62.6462 88.031 62.8707 87.9934 63.0951C87.9934 63.3196 87.9934 63.5253 87.9934 63.7124V68.9311C87.9934 69.2304 88.0122 69.4548 88.0497 69.6045V71.4563C88.0497 71.8678 88.0497 72.2793 88.0497 72.6908C88.0873 73.0649 88.106 73.439 88.106 73.8131C88.106 74.2246 88.106 74.5987 88.106 74.9354C88.1436 75.2721 88.1624 75.6088 88.1624 75.9455C88.1999 76.2822 88.2187 76.6002 88.2187 76.8994C88.2187 77.1613 88.2374 77.4419 88.275 77.7412C88.275 78.003 88.275 78.2462 88.275 78.4707C88.3125 78.6951 88.3313 78.9009 88.3313 79.0879C88.3313 79.275 88.3313 79.462 88.3313 79.6491C88.3688 79.7987 88.3876 79.911 88.3876 79.9858V80.2664C88.3876 80.3038 88.4063 80.3225 88.4439 80.3225V79.9858C88.4439 79.911 88.4439 79.7987 88.4439 79.6491C88.4814 79.462 88.5002 79.275 88.5002 79.0879C88.5002 78.9009 88.5002 78.6951 88.5002 78.4707C88.5377 78.2462 88.5565 78.003 88.5565 77.7412C88.594 77.4419 88.6128 77.1613 88.6128 76.8994C88.6128 76.6002 88.6316 76.2822 88.6691 75.9455C88.6691 75.6088 88.6691 75.2721 88.6691 74.9354C88.7066 74.5987 88.7254 74.2246 88.7254 73.8131C88.7254 73.439 88.7254 73.0649 88.7254 72.6908C88.7629 72.2793 88.7817 71.8678 88.7817 71.4563V70.2217C88.7817 69.9225 88.8005 69.7167 88.838 69.6045V63.7124ZM100.437 76.7311C100.399 76.8059 100.38 76.8994 100.38 77.0117V78.3023C100.343 78.452 100.324 78.6016 100.324 78.7512C100.324 78.8635 100.324 78.9757 100.324 79.0879C100.324 79.1628 100.305 79.2189 100.268 79.2563C100.268 79.2937 100.268 79.3498 100.268 79.4246V79.7613C100.23 79.8361 100.212 79.9297 100.212 80.0419C100.212 80.1167 100.193 80.1915 100.155 80.2664C100.155 80.3412 100.136 80.3973 100.099 80.4347V80.5469L100.043 80.6592C100.043 80.6592 100.08 80.6405 100.155 80.603V80.5469L100.212 80.4908C100.249 80.4534 100.268 80.4347 100.268 80.4347C100.268 80.3973 100.287 80.3599 100.324 80.3225C100.362 80.2477 100.399 80.1728 100.437 80.098C100.474 79.9858 100.512 79.8923 100.549 79.8174C100.587 79.7426 100.606 79.7052 100.606 79.7052C100.606 79.6678 100.624 79.6117 100.662 79.5369C100.7 79.462 100.718 79.4059 100.718 79.3685C100.718 79.3311 100.737 79.275 100.775 79.2002C100.812 79.1253 100.831 79.0692 100.831 79.0318C100.831 78.957 100.85 78.8822 100.887 78.8074C100.887 78.7325 100.887 78.6764 100.887 78.639C100.925 78.5642 100.944 78.4894 100.944 78.4146C100.981 78.2649 101 78.1153 101 77.9656C101.037 77.816 101.075 77.6664 101.112 77.5167C101.15 77.4045 101.169 77.2361 101.169 77.0117C101.169 76.9369 101.169 76.862 101.169 76.7872C101.206 76.7124 101.225 76.6376 101.225 76.5628V74.5987C101.225 74.3743 101.206 74.2059 101.169 74.0937V73.8692C101.169 73.7944 101.15 73.757 101.112 73.757C101.112 73.7196 101.112 73.6822 101.112 73.6448C101.112 73.4577 101.094 73.3081 101.056 73.1959C101.056 73.0462 101.037 72.8966 101 72.7469C100.962 72.6721 100.944 72.5973 100.944 72.5225C100.944 72.4476 100.925 72.3728 100.887 72.298C100.887 72.2606 100.868 72.2419 100.831 72.2419C100.831 72.2045 100.831 72.1671 100.831 72.1297C100.831 72.0923 100.812 72.0735 100.775 72.0735C100.775 72.0361 100.775 71.9987 100.775 71.9613C100.737 71.8865 100.718 71.8304 100.718 71.793C100.718 71.7556 100.7 71.6994 100.662 71.6246C100.624 71.5498 100.606 71.4937 100.606 71.4563C100.606 71.4189 100.587 71.3628 100.549 71.2879C100.512 71.2505 100.493 71.2131 100.493 71.1757C100.493 71.1383 100.474 71.1009 100.437 71.0635C100.362 70.9138 100.324 70.839 100.324 70.839C100.287 70.8016 100.268 70.7829 100.268 70.7829C100.268 70.7455 100.249 70.7081 100.212 70.6707C100.174 70.6333 100.155 70.5958 100.155 70.5584L100.043 70.4462C100.043 70.4462 100.061 70.4836 100.099 70.5584V70.6707C100.136 70.7081 100.155 70.7829 100.155 70.8951C100.155 70.9325 100.155 70.9699 100.155 71.0074C100.193 71.0074 100.212 71.0448 100.212 71.1196C100.212 71.2318 100.23 71.3253 100.268 71.4002V71.6807C100.268 71.7556 100.268 71.8117 100.268 71.8491C100.305 71.8865 100.324 71.9426 100.324 72.0174C100.324 72.3541 100.343 72.616 100.38 72.803V73.7009C100.418 73.8879 100.437 74.1872 100.437 74.5987V76.7311ZM98.1283 73.8131C98.1283 73.3268 98.1095 72.7282 98.072 72.0174C98.0344 71.3066 97.9031 70.6333 97.6778 69.9973C97.4526 69.3613 97.096 68.8189 96.6081 68.3699C96.1576 67.8836 95.482 67.6405 94.5811 67.6405H92.5541C92.1412 67.6779 91.7846 67.8462 91.4843 68.1455C91.184 68.4448 91.0339 68.8002 91.0339 69.2117V81.8376C91.0339 82.2491 91.184 82.6045 91.4843 82.9038C91.7846 83.203 92.1412 83.3527 92.5541 83.3527H94.5811C95.482 83.3527 96.1576 83.1282 96.6081 82.6793C97.096 82.2304 97.4526 81.6879 97.6778 81.052C97.9031 80.3786 98.0344 79.7052 98.072 79.0318C98.1095 78.321 98.1283 77.7225 98.1283 77.2361V73.8131ZM98.1283 55.4635C98.1283 54.9771 98.1095 54.3786 98.072 53.6678C98.0344 52.957 97.9031 52.2836 97.6778 51.6476C97.4526 51.0117 97.096 50.4692 96.6081 50.0203C96.1576 49.534 95.482 49.2908 94.5811 49.2908H92.5541C92.1412 49.3282 91.7846 49.4966 91.4843 49.7958C91.184 50.0951 91.0339 50.4505 91.0339 50.862V63.4879C91.0339 63.8994 91.184 64.2548 91.4843 64.5541C91.7846 64.8534 92.1412 65.003 92.5541 65.003H94.5811C95.482 65.003 96.1576 64.7786 96.6081 64.3297C97.096 63.8807 97.4526 63.3383 97.6778 62.7023C97.9031 62.0289 98.0344 61.3556 98.072 60.6822C98.1095 59.9714 98.1283 59.3728 98.1283 58.8865V55.4635ZM100.549 61.0189C100.587 60.944 100.606 60.9066 100.606 60.9066C100.606 60.8692 100.624 60.8131 100.662 60.7383C100.7 60.6635 100.718 60.6074 100.718 60.5699C100.718 60.4951 100.737 60.4203 100.775 60.3455C100.812 60.2707 100.831 60.2145 100.831 60.1771C100.831 60.1397 100.85 60.0836 100.887 60.0088C100.887 59.934 100.887 59.8779 100.887 59.8404C100.925 59.7656 100.944 59.6908 100.944 59.616C100.981 59.4663 101 59.3167 101 59.1671C101.037 59.0174 101.075 58.8678 101.112 58.7181C101.15 58.6059 101.169 58.4376 101.169 58.2131C101.169 58.1383 101.169 58.0635 101.169 57.9886C101.206 57.9138 101.225 57.839 101.225 57.7642V55.8002C101.225 55.5757 101.206 55.4074 101.169 55.2951V55.0707C101.169 54.9958 101.15 54.9584 101.112 54.9584C101.112 54.921 101.112 54.8649 101.112 54.7901C101.112 54.603 101.075 54.3225 101 53.9484C100.962 53.8735 100.944 53.7987 100.944 53.7239C100.944 53.6491 100.925 53.5743 100.887 53.4994C100.887 53.462 100.868 53.4433 100.831 53.4433C100.831 53.4059 100.831 53.3685 100.831 53.3311C100.831 53.2937 100.812 53.275 100.775 53.275C100.775 53.2376 100.775 53.2002 100.775 53.1627C100.737 53.0879 100.718 53.0318 100.718 52.9944C100.718 52.957 100.7 52.9009 100.662 52.8261C100.624 52.7512 100.606 52.6951 100.606 52.6577C100.606 52.6203 100.587 52.5642 100.549 52.4894C100.512 52.452 100.493 52.4145 100.493 52.3771C100.493 52.3397 100.474 52.3023 100.437 52.2649C100.362 52.1153 100.324 52.0404 100.324 52.0404C100.287 52.003 100.268 51.9843 100.268 51.9843C100.268 51.9469 100.249 51.9095 100.212 51.8721C100.174 51.8347 100.155 51.7973 100.155 51.7599C100.118 51.7225 100.099 51.685 100.099 51.6476H100.043C100.043 51.6476 100.061 51.685 100.099 51.7599V51.8721C100.136 51.9095 100.155 51.9843 100.155 52.0966C100.155 52.134 100.155 52.1714 100.155 52.2088C100.193 52.2088 100.212 52.2462 100.212 52.321C100.212 52.4333 100.23 52.5268 100.268 52.6016V52.8822C100.268 52.957 100.268 53.0131 100.268 53.0505C100.305 53.0879 100.324 53.144 100.324 53.2189C100.324 53.5556 100.343 53.8174 100.38 54.0045V54.9023C100.418 55.0894 100.437 55.3886 100.437 55.8002V57.9325C100.399 58.0074 100.38 58.1009 100.38 58.2131V59.5038C100.343 59.6534 100.324 59.803 100.324 59.9527C100.324 60.0649 100.324 60.1771 100.324 60.2894C100.324 60.3642 100.305 60.4203 100.268 60.4577C100.268 60.4951 100.268 60.5512 100.268 60.6261V60.9627C100.23 61.0376 100.212 61.1311 100.212 61.2433C100.212 61.3181 100.193 61.393 100.155 61.4678C100.155 61.5426 100.136 61.5987 100.099 61.6361V61.7484L100.043 61.8606C100.043 61.8606 100.08 61.8419 100.155 61.8045V61.7484L100.212 61.6922C100.249 61.6548 100.268 61.6361 100.268 61.6361C100.268 61.5987 100.287 61.5613 100.324 61.5239C100.362 61.4491 100.399 61.3743 100.437 61.2994C100.474 61.1872 100.512 61.0937 100.549 61.0189Z" fill="#F4EDE8"/>
<path d="M122.556 82.5671C122.556 83.2405 122.612 83.7455 122.725 84.0822C122.875 84.3815 123.025 84.6246 123.175 84.8117C123.325 84.9613 123.457 85.111 123.569 85.2606C123.719 85.4102 123.794 85.6534 123.794 85.9901H108.48C108.254 85.9901 108.048 85.8966 107.86 85.7095C107.673 85.5225 107.579 85.3167 107.579 85.0923C107.579 85.3167 107.485 85.5225 107.297 85.7095C107.147 85.8966 106.941 85.9901 106.678 85.9901H103.75C103.75 85.6534 103.806 85.4102 103.919 85.2606C104.069 85.111 104.219 84.9613 104.369 84.8117C104.519 84.6246 104.651 84.3815 104.763 84.0822C104.914 83.7829 104.989 83.3153 104.989 82.6793V68.9872C104.876 67.8275 104.351 66.9858 103.412 66.462C103.825 66.2002 104.351 66.0692 104.989 66.0692V50.0203C104.989 49.3843 104.914 48.9167 104.763 48.6174C104.651 48.3181 104.519 48.0937 104.369 47.944C104.219 47.757 104.069 47.5886 103.919 47.439C103.806 47.2894 103.75 47.0462 103.75 46.7095H106.734C106.959 46.7095 107.166 46.803 107.353 46.9901C107.541 47.1397 107.635 47.3455 107.635 47.6074C107.635 47.0088 107.935 46.7095 108.536 46.7095H123.794C123.794 47.0462 123.719 47.2894 123.569 47.439C123.457 47.5886 123.325 47.757 123.175 47.944C123.025 48.0937 122.875 48.3368 122.725 48.6735C122.612 48.9728 122.556 49.4591 122.556 50.1325V57.5958C121.242 57.5958 120.228 57.3527 119.515 56.8663C118.84 56.3426 118.333 55.7627 117.995 55.1268C117.582 54.416 117.357 53.5743 117.319 52.6016V50.862C117.319 50.4505 117.169 50.0951 116.869 49.7958C116.569 49.4966 116.212 49.3282 115.799 49.2908H111.745C111.332 49.3282 110.976 49.4966 110.675 49.7958C110.375 50.0951 110.225 50.4505 110.225 50.862V63.4879C110.225 63.8994 110.375 64.2548 110.675 64.5541C110.976 64.8534 111.332 65.003 111.745 65.003H112.139C112.552 65.003 112.89 64.8534 113.153 64.5541C113.453 64.2548 113.603 63.8994 113.603 63.4879V63.4318C113.641 62.8707 113.791 62.3843 114.054 61.9728C114.279 61.5987 114.617 61.262 115.067 60.9627C115.518 60.6635 116.175 60.5138 117.038 60.5138V72.1297C116.175 72.1297 115.518 71.98 115.067 71.6807C114.617 71.3815 114.279 71.0448 114.054 70.6707C113.791 70.2592 113.641 69.7728 113.603 69.2117C113.603 68.8002 113.453 68.4448 113.153 68.1455C112.89 67.8462 112.552 67.6779 112.139 67.6405H111.745C111.332 67.6779 110.976 67.8462 110.675 68.1455C110.375 68.4448 110.225 68.8002 110.225 69.2117V81.8376C110.225 82.2491 110.375 82.6045 110.675 82.9038C110.976 83.203 111.332 83.3527 111.745 83.3527H115.799C116.212 83.3527 116.569 83.203 116.869 82.9038C117.169 82.6045 117.319 82.2491 117.319 81.8376V80.0419C117.357 79.1066 117.582 78.2836 117.995 77.5728C118.333 76.9369 118.84 76.357 119.515 75.8333C120.228 75.3095 121.242 75.0476 122.556 75.0476V82.5671ZM108.029 63.7124C108.029 63.5253 108.01 63.3196 107.973 63.0951C107.973 62.8707 107.973 62.6462 107.973 62.4217V61.1872C107.935 60.3642 107.917 59.5786 107.917 58.8304C107.917 58.0822 107.898 57.3714 107.86 56.698C107.823 56.3987 107.804 56.0994 107.804 55.8002C107.804 55.5009 107.785 55.2203 107.748 54.9584C107.748 54.6592 107.729 54.3973 107.691 54.1728C107.691 53.9484 107.691 53.7426 107.691 53.5556C107.691 53.3685 107.673 53.2002 107.635 53.0505C107.635 52.9009 107.635 52.7699 107.635 52.6577V52.3771C107.597 52.3771 107.579 52.3958 107.579 52.4332V52.6577C107.579 52.7699 107.56 52.9009 107.522 53.0505C107.522 53.2002 107.522 53.3685 107.522 53.5556C107.522 53.7426 107.504 53.9484 107.466 54.1728C107.466 54.3973 107.466 54.6592 107.466 54.9584C107.429 55.2203 107.41 55.5009 107.41 55.8002C107.41 56.0994 107.391 56.3987 107.353 56.698C107.316 57.3714 107.297 58.0822 107.297 58.8304C107.297 59.5786 107.278 60.3642 107.241 61.1872V62.4217C107.241 62.6462 107.222 62.8707 107.185 63.0951C107.185 63.3196 107.185 63.5253 107.185 63.7124V68.9311C107.185 69.2304 107.203 69.4548 107.241 69.6045V71.4563C107.241 71.8678 107.241 72.2793 107.241 72.6908C107.278 73.0649 107.297 73.439 107.297 73.8131C107.297 74.2246 107.297 74.5987 107.297 74.9354C107.335 75.2721 107.353 75.6088 107.353 75.9455C107.391 76.2822 107.41 76.6002 107.41 76.8994C107.41 77.1613 107.429 77.4419 107.466 77.7412C107.466 78.003 107.466 78.2462 107.466 78.4707C107.504 78.6951 107.522 78.9009 107.522 79.0879C107.522 79.275 107.522 79.462 107.522 79.6491C107.56 79.7987 107.579 79.911 107.579 79.9858V80.2664C107.579 80.3038 107.597 80.3225 107.635 80.3225V79.9858C107.635 79.911 107.635 79.7987 107.635 79.6491C107.673 79.462 107.691 79.275 107.691 79.0879C107.691 78.9009 107.691 78.6951 107.691 78.4707C107.729 78.2462 107.748 78.003 107.748 77.7412C107.785 77.4419 107.804 77.1613 107.804 76.8994C107.804 76.6002 107.823 76.2822 107.86 75.9455C107.86 75.6088 107.86 75.2721 107.86 74.9354C107.898 74.5987 107.917 74.2246 107.917 73.8131C107.917 73.439 107.917 73.0649 107.917 72.6908C107.954 72.2793 107.973 71.8678 107.973 71.4563V70.2217C107.973 69.9225 107.992 69.7167 108.029 69.6045V63.7124Z" fill="#F4EDE8"/>
<path d="M145.206 88.3469C145.619 88.4218 145.9 88.5527 146.051 88.7397C146.238 88.9268 146.37 89.1138 146.445 89.3009C146.52 89.5253 146.557 89.7685 146.557 90.0304C145.356 90.0304 144.23 89.8807 143.179 89.5815C142.128 89.2822 141.19 88.7959 140.364 88.1225C139.576 87.4491 138.937 86.57 138.449 85.4851C137.999 84.4002 137.774 83.0721 137.774 81.5009V73.8131C137.774 73.3268 137.755 72.7282 137.718 72.0174C137.68 71.3066 137.549 70.6333 137.323 69.9973C137.098 69.3613 136.742 68.8189 136.254 68.3699C135.803 67.8836 135.128 67.6405 134.227 67.6405H131.918C131.58 67.7153 131.28 67.9023 131.017 68.2016C130.792 68.4635 130.679 68.7815 130.679 69.1556V82.5671C130.679 83.2405 130.736 83.7455 130.848 84.0822C130.998 84.3815 131.149 84.6246 131.299 84.8117C131.449 84.9613 131.58 85.111 131.693 85.2606C131.843 85.4102 131.918 85.6534 131.918 85.9901H128.934C128.709 85.9901 128.502 85.8966 128.315 85.7095C128.127 85.5225 128.033 85.3167 128.033 85.0923C128.033 85.3167 127.939 85.5225 127.752 85.7095C127.601 85.8966 127.395 85.9901 127.132 85.9901H124.204C124.204 85.6534 124.261 85.4102 124.373 85.2606C124.523 85.111 124.674 84.9613 124.824 84.8117C124.974 84.6246 125.105 84.3815 125.218 84.0822C125.368 83.7829 125.443 83.3153 125.443 82.6793V68.9872C125.33 67.8275 124.805 66.9858 123.867 66.462C124.279 66.2002 124.805 66.0692 125.443 66.0692V50.0203C125.443 49.3843 125.368 48.9167 125.218 48.6174C125.105 48.3181 124.974 48.0937 124.824 47.944C124.674 47.757 124.523 47.5886 124.373 47.439C124.261 47.2894 124.204 47.0462 124.204 46.7095H127.189C127.414 46.7095 127.62 46.803 127.808 46.9901C127.996 47.1397 128.089 47.3455 128.089 47.6074C128.089 47.0088 128.39 46.7095 128.99 46.7095H134.283C135.484 46.7095 136.61 46.934 137.661 47.3829C138.712 47.8318 139.632 48.4491 140.42 49.2347C141.208 49.9829 141.828 50.8807 142.278 51.9282C142.729 52.9757 142.973 54.0793 143.01 55.239V58.8865C143.01 60.4577 142.635 61.898 141.884 63.2074C141.133 64.5167 140.12 65.5642 138.844 66.3498C140.12 67.098 141.133 68.1455 141.884 69.4923C142.635 70.8016 143.01 72.2419 143.01 73.8131V81.2764C143.01 82.062 143.01 82.8664 143.01 83.6894C143.048 84.475 143.142 85.2045 143.292 85.8779C143.442 86.5138 143.667 87.0563 143.967 87.5052C144.268 87.9541 144.681 88.2347 145.206 88.3469ZM140.082 57.9325C140.045 58.0074 140.026 58.1009 140.026 58.2131V59.5038C139.988 59.6534 139.97 59.803 139.97 59.9527C139.97 60.0649 139.97 60.1771 139.97 60.2894C139.97 60.3642 139.951 60.4203 139.913 60.4577C139.913 60.4951 139.913 60.5512 139.913 60.6261V60.9627C139.876 61.0376 139.857 61.1311 139.857 61.2433C139.857 61.3181 139.838 61.393 139.801 61.4678C139.801 61.5426 139.782 61.5987 139.745 61.6361V61.7484L139.688 61.8606C139.688 61.8606 139.726 61.8419 139.801 61.8045V61.7484L139.857 61.6922C139.895 61.6548 139.913 61.6361 139.913 61.6361C139.913 61.5987 139.932 61.5613 139.97 61.5239C140.007 61.4491 140.045 61.3743 140.082 61.2994C140.12 61.1872 140.157 61.0937 140.195 61.0189C140.232 60.944 140.251 60.9066 140.251 60.9066C140.251 60.8692 140.27 60.8131 140.308 60.7383C140.345 60.6635 140.364 60.6074 140.364 60.5699C140.364 60.4951 140.383 60.4203 140.42 60.3455C140.458 60.2707 140.476 60.2145 140.476 60.1771C140.476 60.1397 140.495 60.0836 140.533 60.0088C140.533 59.934 140.533 59.8779 140.533 59.8404C140.57 59.7656 140.589 59.6908 140.589 59.616C140.627 59.4663 140.645 59.3167 140.645 59.1671C140.683 59.0174 140.72 58.8678 140.758 58.7181C140.796 58.6059 140.814 58.4376 140.814 58.2131C140.814 58.1383 140.814 58.0635 140.814 57.9886C140.852 57.9138 140.871 57.839 140.871 57.7642V55.8002C140.871 55.5757 140.852 55.4074 140.814 55.2951V55.0707C140.814 54.9958 140.796 54.9584 140.758 54.9584C140.758 54.921 140.758 54.8649 140.758 54.7901C140.758 54.603 140.72 54.3225 140.645 53.9484C140.608 53.8735 140.589 53.7987 140.589 53.7239C140.589 53.6491 140.57 53.5743 140.533 53.4994C140.533 53.462 140.514 53.4433 140.476 53.4433C140.476 53.4059 140.476 53.3685 140.476 53.3311C140.476 53.2937 140.458 53.275 140.42 53.275C140.42 53.2376 140.42 53.2002 140.42 53.1627C140.383 53.0879 140.364 53.0318 140.364 52.9944C140.364 52.957 140.345 52.9009 140.308 52.8261C140.27 52.7512 140.251 52.6951 140.251 52.6577C140.251 52.6203 140.232 52.5642 140.195 52.4894C140.157 52.452 140.139 52.4145 140.139 52.3771C140.139 52.3397 140.12 52.3023 140.082 52.2649C140.007 52.1153 139.97 52.0404 139.97 52.0404C139.932 52.003 139.913 51.9843 139.913 51.9843C139.913 51.9469 139.895 51.9095 139.857 51.8721C139.82 51.8347 139.801 51.7973 139.801 51.7599C139.763 51.7225 139.745 51.685 139.745 51.6476H139.688C139.688 51.6476 139.707 51.685 139.745 51.7599V51.8721C139.782 51.9095 139.801 51.9843 139.801 52.0966C139.801 52.134 139.801 52.1714 139.801 52.2088C139.838 52.2088 139.857 52.2462 139.857 52.321C139.857 52.4333 139.876 52.5268 139.913 52.6016V52.8822C139.913 52.957 139.913 53.0131 139.913 53.0505C139.951 53.0879 139.97 53.144 139.97 53.2189C139.97 53.5556 139.988 53.8174 140.026 54.0045V54.9023C140.064 55.0894 140.082 55.3886 140.082 55.8002V57.9325ZM128.484 63.7124C128.484 63.5253 128.465 63.3196 128.427 63.0951C128.427 62.8707 128.427 62.6462 128.427 62.4217V61.1872C128.39 60.3642 128.371 59.5786 128.371 58.8304C128.371 58.0822 128.352 57.3714 128.315 56.698C128.277 56.3987 128.258 56.0994 128.258 55.8002C128.258 55.5009 128.24 55.2203 128.202 54.9584C128.202 54.6592 128.183 54.3973 128.146 54.1728C128.146 53.9484 128.146 53.7426 128.146 53.5556C128.146 53.3685 128.127 53.2002 128.089 53.0505C128.089 52.9009 128.089 52.7699 128.089 52.6577V52.3771C128.052 52.3771 128.033 52.3958 128.033 52.4332V52.6577C128.033 52.7699 128.014 52.9009 127.977 53.0505C127.977 53.2002 127.977 53.3685 127.977 53.5556C127.977 53.7426 127.958 53.9484 127.921 54.1728C127.921 54.3973 127.921 54.6592 127.921 54.9584C127.883 55.2203 127.864 55.5009 127.864 55.8002C127.864 56.0994 127.845 56.3987 127.808 56.698C127.77 57.3714 127.752 58.0822 127.752 58.8304C127.752 59.5786 127.733 60.3642 127.695 61.1872V62.4217C127.695 62.6462 127.677 62.8707 127.639 63.0951C127.639 63.3196 127.639 63.5253 127.639 63.7124V68.9311C127.639 69.2304 127.658 69.4548 127.695 69.6045V71.4563C127.695 71.8678 127.695 72.2793 127.695 72.6908C127.733 73.0649 127.752 73.439 127.752 73.8131C127.752 74.2246 127.752 74.5987 127.752 74.9354C127.789 75.2721 127.808 75.6088 127.808 75.9455C127.845 76.2822 127.864 76.6002 127.864 76.8994C127.864 77.1613 127.883 77.4419 127.921 77.7412C127.921 78.003 127.921 78.2462 127.921 78.4707C127.958 78.6951 127.977 78.9009 127.977 79.0879C127.977 79.275 127.977 79.462 127.977 79.6491C128.014 79.7987 128.033 79.911 128.033 79.9858V80.2664C128.033 80.3038 128.052 80.3225 128.089 80.3225V79.9858C128.089 79.911 128.089 79.7987 128.089 79.6491C128.127 79.462 128.146 79.275 128.146 79.0879C128.146 78.9009 128.146 78.6951 128.146 78.4707C128.183 78.2462 128.202 78.003 128.202 77.7412C128.24 77.4419 128.258 77.1613 128.258 76.8994C128.258 76.6002 128.277 76.2822 128.315 75.9455C128.315 75.6088 128.315 75.2721 128.315 74.9354C128.352 74.5987 128.371 74.2246 128.371 73.8131C128.371 73.439 128.371 73.0649 128.371 72.6908C128.408 72.2793 128.427 71.8678 128.427 71.4563V70.2217C128.427 69.9225 128.446 69.7167 128.484 69.6045V63.7124ZM137.774 55.4635C137.774 54.9771 137.755 54.3786 137.718 53.6678C137.68 52.957 137.549 52.2836 137.323 51.6476C137.098 51.0117 136.742 50.4692 136.254 50.0203C135.803 49.534 135.128 49.2908 134.227 49.2908H132.2C131.787 49.3282 131.43 49.4966 131.13 49.7958C130.83 50.0951 130.679 50.4505 130.679 50.862V63.4879C130.679 63.8994 130.83 64.2548 131.13 64.5541C131.43 64.8534 131.787 65.003 132.2 65.003H134.227C135.128 65.003 135.803 64.7786 136.254 64.3297C136.742 63.8807 137.098 63.3383 137.323 62.7023C137.549 62.0289 137.68 61.3556 137.718 60.6822C137.755 59.9714 137.774 59.3728 137.774 58.8865V55.4635ZM141.546 86.2146C141.546 86.2146 141.527 86.1959 141.49 86.1584L141.434 86.1023C141.396 86.0275 141.359 85.9527 141.321 85.8779C141.321 85.803 141.283 85.7282 141.208 85.6534C141.171 85.5412 141.133 85.4289 141.096 85.3167C141.058 85.1671 141.021 84.9987 140.983 84.8117C140.908 84.4376 140.871 84.0822 140.871 83.7455C140.833 83.5584 140.814 83.3714 140.814 83.1843C140.814 82.9599 140.814 82.7167 140.814 82.4548V79.4807C140.814 79.2189 140.814 78.957 140.814 78.6951C140.814 78.4333 140.833 78.1527 140.871 77.8534C140.871 77.5915 140.871 77.3297 140.871 77.0678C140.871 76.8059 140.852 76.544 140.814 76.2822V75.4966C140.814 75.1225 140.796 74.8606 140.758 74.711C140.758 74.4491 140.739 74.2059 140.702 73.9815C140.702 73.7196 140.683 73.4764 140.645 73.252C140.57 72.7282 140.495 72.2793 140.42 71.9052C140.383 71.7182 140.345 71.5498 140.308 71.4002C140.27 71.2131 140.214 71.0261 140.139 70.839C140.064 70.652 140.007 70.5023 139.97 70.3901C139.932 70.2779 139.876 70.1656 139.801 70.0534C139.726 69.9412 139.669 69.8476 139.632 69.7728C139.594 69.698 139.557 69.6232 139.519 69.5484C139.482 69.5484 139.444 69.5297 139.407 69.4923C139.369 69.4923 139.35 69.4735 139.35 69.4361L139.407 69.4923C139.407 69.5297 139.425 69.5671 139.463 69.6045C139.463 69.6419 139.463 69.6793 139.463 69.7167C139.501 69.7167 139.519 69.7541 139.519 69.8289C139.557 69.8664 139.576 69.9038 139.576 69.9412C139.576 69.9786 139.594 70.0347 139.632 70.1095C139.669 70.2592 139.726 70.521 139.801 70.8951C139.838 71.0822 139.857 71.2692 139.857 71.4563C139.895 71.6433 139.932 71.8304 139.97 72.0174C139.97 72.2045 139.97 72.4102 139.97 72.6347C140.007 72.8217 140.026 73.0462 140.026 73.3081V80.2664C140.026 80.416 140.026 80.5469 140.026 80.6592C140.064 80.7714 140.082 80.9023 140.082 81.052C140.082 81.3138 140.082 81.5757 140.082 81.8376C140.12 82.062 140.157 82.2865 140.195 82.511C140.232 82.7354 140.251 82.9599 140.251 83.1843C140.289 83.4088 140.326 83.6146 140.364 83.8016C140.439 84.0261 140.495 84.2318 140.533 84.4189C140.57 84.5685 140.627 84.7369 140.702 84.9239C140.777 85.111 140.833 85.2606 140.871 85.3728C140.908 85.4851 140.964 85.5973 141.04 85.7095L141.152 85.8218C141.19 85.8592 141.208 85.8966 141.208 85.934C141.208 85.934 141.227 85.9527 141.265 85.9901L141.49 86.2146H141.546Z" fill="#F4EDE8"/>
<ellipse rx="3.01632" ry="3.00617" transform="matrix(1 0 0 -1 12.7529 66.7409)" fill="#999591"/>
<ellipse rx="3.01632" ry="3.00617" transform="matrix(1 0 0 -1 219.351 66.7409)" fill="#999591"/>
<path fill-rule="evenodd" clip-rule="evenodd" d="M183.368 68.2855C184.569 68.2855 186.24 68.0916 187.291 67.528C187.561 67.3831 187.825 67.2244 188.08 67.0518C189.356 66.2662 190.274 65.1618 191.025 63.8524C191.776 62.5431 192.151 61.1028 192.151 59.5316V55.8841C192.114 54.7244 191.87 53.6208 191.419 52.5733C190.969 51.5258 190.349 50.628 189.561 49.8798C188.773 49.0942 187.853 48.4769 186.802 48.028C185.751 47.579 184.625 47.3546 183.424 47.3546H178.131C177.531 47.3546 177.23 47.6539 177.23 48.2524C177.23 47.9906 177.137 47.7848 176.949 47.6352C176.761 47.4481 176.555 47.3546 176.329 47.3546H173.345C173.345 47.6913 173.402 47.9344 173.514 48.0841C173.664 48.2337 173.815 48.4021 173.965 48.5891C174.115 48.7388 174.246 48.9632 174.359 49.2625C174.509 49.5618 174.584 50.0294 174.584 50.6654V66.7143C173.946 66.7143 173.42 66.8452 173.008 67.1071C173.946 67.6309 174.471 68.4726 174.584 69.6323V83.3244C174.584 83.9604 174.509 84.428 174.359 84.7273C174.246 85.0265 174.115 85.2697 173.965 85.4568L173.514 85.9057C173.402 86.0553 173.345 86.2985 173.345 86.6352H176.273C176.536 86.6352 176.742 86.5417 176.893 86.3546C177.08 86.1676 177.174 85.9618 177.174 85.7373C177.174 85.9618 177.268 86.1676 177.456 86.3546C177.643 86.5417 177.85 86.6352 178.075 86.6352H181.059C181.059 86.2985 180.984 86.0553 180.834 85.9057C180.721 85.756 180.59 85.6064 180.44 85.4568C180.29 85.2697 180.139 85.0265 179.989 84.7273C179.877 84.3906 179.82 83.8855 179.82 83.2122V69.8006C179.82 69.4265 179.933 69.1086 180.158 68.8467C180.421 68.5474 180.721 68.3603 181.059 68.2855H183.368ZM186.858 54.3129C186.896 55.0237 186.915 55.6222 186.915 56.1085V59.5316C186.915 60.0179 186.896 60.6165 186.858 61.3273C186.821 62.0006 186.69 62.674 186.464 63.3474C186.239 63.9834 185.883 64.5258 185.395 64.9747C184.944 65.4237 184.268 65.6481 183.368 65.6481H181.341C180.928 65.6481 180.571 65.4985 180.271 65.1992C179.971 64.8999 179.82 64.5445 179.82 64.133V51.5071C179.82 51.0956 179.971 50.7402 180.271 50.4409C180.571 50.1416 180.928 49.9733 181.341 49.9359H183.368C184.268 49.9359 184.944 50.179 185.395 50.6654C185.883 51.1143 186.239 51.6567 186.464 52.2927C186.69 52.9287 186.821 53.6021 186.858 54.3129ZM189.167 58.8582C189.167 58.746 189.186 58.6524 189.223 58.5776V56.4452C189.223 56.0337 189.205 55.7344 189.167 55.5474V54.6496C189.129 54.4625 189.111 54.2006 189.111 53.8639C189.111 53.7891 189.092 53.733 189.054 53.6956V53.5272V53.2467C189.017 53.1719 188.998 53.0783 188.998 52.9661C188.998 52.8913 188.979 52.8539 188.942 52.8539V52.7416C188.942 52.6294 188.923 52.5546 188.885 52.5172V52.4049L188.829 52.2927H188.885C188.885 52.3301 188.904 52.3675 188.942 52.4049C188.942 52.4424 188.961 52.4798 188.998 52.5172C189.036 52.5546 189.054 52.592 189.054 52.6294L189.111 52.6855L189.223 52.91C189.261 52.9474 189.28 52.9848 189.28 53.0222C189.28 53.0596 189.298 53.097 189.336 53.1344C189.373 53.2093 189.392 53.2654 189.392 53.3028C189.392 53.3402 189.411 53.3963 189.448 53.4711C189.486 53.546 189.505 53.6021 189.505 53.6395C189.505 53.6769 189.524 53.733 189.561 53.8078V53.9201C189.599 53.9201 189.617 53.9388 189.617 53.9762V54.0884C189.655 54.0884 189.674 54.1071 189.674 54.1445C189.711 54.2193 189.73 54.2942 189.73 54.369C189.73 54.4438 189.749 54.5186 189.786 54.5934C189.861 54.9675 189.899 55.2481 189.899 55.4352V55.6035C189.936 55.6035 189.955 55.6409 189.955 55.7157V55.9402C189.993 56.0524 190.012 56.2208 190.012 56.4452V58.4093C190.012 58.4841 189.993 58.5589 189.955 58.6337V58.8582C189.955 59.0826 189.936 59.251 189.899 59.3632L189.786 59.8121C189.786 59.9618 189.768 60.1114 189.73 60.2611C189.73 60.3359 189.711 60.4107 189.674 60.4855V60.6539C189.636 60.7287 189.617 60.7848 189.617 60.8222C189.617 60.8596 189.599 60.9157 189.561 60.9906C189.524 61.0654 189.505 61.1402 189.505 61.215C189.505 61.2524 189.486 61.3085 189.448 61.3834C189.411 61.4582 189.392 61.5143 189.392 61.5517L189.336 61.6639C189.298 61.7388 189.261 61.8323 189.223 61.9445L189.111 62.169C189.073 62.2064 189.054 62.2438 189.054 62.2812L188.998 62.3373L188.942 62.3934V62.4496L188.829 62.5057L188.885 62.3934V62.2812C188.923 62.2438 188.942 62.1877 188.942 62.1129C188.979 62.038 188.998 61.9632 188.998 61.8884C188.998 61.7762 189.017 61.6826 189.054 61.6078V61.2711V61.1028C189.092 61.0654 189.111 61.0093 189.111 60.9344V60.5978C189.111 60.4481 189.129 60.2985 189.167 60.1488V58.8582ZM177.624 64.3575C177.624 64.1704 177.606 63.9647 177.568 63.7402V63.0668V61.8323C177.531 61.0093 177.512 60.2237 177.512 59.4755C177.512 58.7273 177.493 58.0165 177.456 57.3431C177.418 57.0438 177.399 56.7445 177.399 56.4452C177.399 56.146 177.38 55.8654 177.343 55.6035C177.343 55.3042 177.324 55.0424 177.287 54.8179V54.2006C177.287 54.0136 177.268 53.8452 177.23 53.6956V53.3028V53.0222C177.193 53.0222 177.174 53.0409 177.174 53.0783V53.3028C177.174 53.415 177.155 53.546 177.118 53.6956V54.2006C177.118 54.3877 177.099 54.5934 177.061 54.8179V55.6035C177.024 55.8654 177.005 56.146 177.005 56.4452C177.005 56.7445 176.986 57.0438 176.949 57.3431C176.911 58.0165 176.893 58.7273 176.893 59.4755C176.893 60.2237 176.874 61.0093 176.836 61.8323V63.0668C176.836 63.2913 176.817 63.5157 176.78 63.7402V64.3575V69.5762C176.78 69.8755 176.799 70.0999 176.836 70.2496V72.1014V73.3359C176.874 73.71 176.893 74.0841 176.893 74.4582V75.5805C176.93 75.9172 176.949 76.2539 176.949 76.5906C176.986 76.9273 177.005 77.2452 177.005 77.5445C177.005 77.8064 177.024 78.087 177.061 78.3863V79.1158C177.099 79.3402 177.118 79.546 177.118 79.733V80.2942C177.155 80.4438 177.174 80.556 177.174 80.6309V80.9114C177.174 80.9488 177.193 80.9675 177.23 80.9675V80.6309V80.2942C177.268 80.1071 177.287 79.9201 177.287 79.733V79.1158C177.324 78.8913 177.343 78.6481 177.343 78.3863C177.38 78.087 177.399 77.8064 177.399 77.5445C177.399 77.2452 177.418 76.9273 177.456 76.5906V75.5805C177.493 75.2438 177.512 74.8697 177.512 74.4582V73.3359C177.549 72.9244 177.568 72.5129 177.568 72.1014V70.8668C177.568 70.5675 177.587 70.3618 177.624 70.2496V64.3575Z" fill="#F4EDE8"/>
<path fill-rule="evenodd" clip-rule="evenodd" d="M201.861 68.2855C203.062 68.2855 204.734 68.0916 205.785 67.528C206.055 67.3831 206.318 67.2244 206.574 67.0518C207.85 66.2662 208.768 65.1618 209.519 63.8524C210.269 62.5431 210.645 61.1028 210.645 59.5316V55.8841C210.607 54.7244 210.363 53.6208 209.913 52.5733C209.462 51.5258 208.843 50.628 208.055 49.8798C207.266 49.0942 206.347 48.4769 205.296 48.028C204.245 47.579 203.119 47.3546 201.917 47.3546H196.625C196.024 47.3546 195.724 47.6539 195.724 48.2524C195.724 47.9906 195.63 47.7848 195.442 47.6352C195.255 47.4481 195.048 47.3546 194.823 47.3546H191.839C191.839 47.6913 191.895 47.9344 192.008 48.0841C192.158 48.2337 192.308 48.4021 192.458 48.5891C192.608 48.7388 192.74 48.9632 192.852 49.2625C193.002 49.5618 193.078 50.0294 193.078 50.6654V66.7143C192.439 66.7143 191.914 66.8452 191.501 67.1071C192.439 67.6309 192.965 68.4726 193.078 69.6323V83.3244C193.078 83.9604 193.002 84.428 192.852 84.7273C192.74 85.0265 192.608 85.2697 192.458 85.4568L192.008 85.9057C191.895 86.0553 191.839 86.2985 191.839 86.6352H194.767C195.029 86.6352 195.236 86.5417 195.386 86.3546C195.574 86.1676 195.668 85.9618 195.668 85.7373C195.668 85.9618 195.761 86.1676 195.949 86.3546C196.137 86.5417 196.343 86.6352 196.568 86.6352H199.553C199.553 86.2985 199.478 86.0553 199.327 85.9057C199.215 85.756 199.083 85.6064 198.933 85.4568C198.783 85.2697 198.633 85.0265 198.483 84.7273C198.37 84.3906 198.314 83.8855 198.314 83.2122V69.8006C198.314 69.4265 198.426 69.1086 198.652 68.8467C198.914 68.5474 199.215 68.3603 199.553 68.2855H201.861ZM205.352 54.3129C205.39 55.0237 205.408 55.6222 205.408 56.1085V59.5316C205.408 60.0179 205.39 60.6165 205.352 61.3273C205.314 62.0006 205.183 62.674 204.958 63.3474C204.733 63.9834 204.376 64.5258 203.888 64.9747C203.438 65.4237 202.762 65.6481 201.861 65.6481H199.834C199.421 65.6481 199.065 65.4985 198.764 65.1992C198.464 64.8999 198.314 64.5445 198.314 64.133V51.5071C198.314 51.0956 198.464 50.7402 198.764 50.4409C199.065 50.1416 199.421 49.9733 199.834 49.9359H201.861C202.762 49.9359 203.438 50.179 203.888 50.6654C204.376 51.1143 204.733 51.6567 204.958 52.2927C205.183 52.9287 205.314 53.6021 205.352 54.3129ZM207.66 58.8582C207.66 58.746 207.679 58.6524 207.717 58.5776V56.4452C207.717 56.0337 207.698 55.7344 207.66 55.5474V54.6496C207.623 54.4625 207.604 54.2006 207.604 53.8639C207.604 53.7891 207.585 53.733 207.548 53.6956V53.5272V53.2467C207.51 53.1719 207.492 53.0783 207.492 52.9661C207.492 52.8913 207.473 52.8539 207.435 52.8539V52.7416C207.435 52.6294 207.416 52.5546 207.379 52.5172V52.4049L207.323 52.2927H207.379C207.379 52.3301 207.398 52.3675 207.435 52.4049C207.435 52.4424 207.454 52.4798 207.492 52.5172C207.529 52.5546 207.548 52.592 207.548 52.6294L207.604 52.6855L207.717 52.91C207.754 52.9474 207.773 52.9848 207.773 53.0222C207.773 53.0596 207.792 53.097 207.829 53.1344C207.867 53.2093 207.886 53.2654 207.886 53.3028C207.886 53.3402 207.904 53.3963 207.942 53.4711C207.98 53.546 207.998 53.6021 207.998 53.6395C207.998 53.6769 208.017 53.733 208.055 53.8078V53.9201C208.092 53.9201 208.111 53.9388 208.111 53.9762V54.0884C208.148 54.0884 208.167 54.1071 208.167 54.1445C208.205 54.2193 208.224 54.2942 208.224 54.369C208.224 54.4438 208.242 54.5186 208.28 54.5934C208.355 54.9675 208.392 55.2481 208.392 55.4352V55.6035C208.43 55.6035 208.449 55.6409 208.449 55.7157V55.9402C208.486 56.0524 208.505 56.2208 208.505 56.4452V58.4093C208.505 58.4841 208.486 58.5589 208.449 58.6337V58.8582C208.449 59.0826 208.43 59.251 208.392 59.3632L208.28 59.8121C208.28 59.9618 208.261 60.1114 208.224 60.2611C208.224 60.3359 208.205 60.4107 208.167 60.4855V60.6539C208.13 60.7287 208.111 60.7848 208.111 60.8222C208.111 60.8596 208.092 60.9157 208.055 60.9906C208.017 61.0654 207.998 61.1402 207.998 61.215C207.998 61.2524 207.98 61.3085 207.942 61.3834C207.904 61.4582 207.886 61.5143 207.886 61.5517L207.829 61.6639C207.792 61.7388 207.754 61.8323 207.717 61.9445L207.604 62.169C207.567 62.2064 207.548 62.2438 207.548 62.2812L207.492 62.3373L207.435 62.3934V62.4496L207.323 62.5057L207.379 62.3934V62.2812C207.416 62.2438 207.435 62.1877 207.435 62.1129C207.473 62.038 207.492 61.9632 207.492 61.8884C207.492 61.7762 207.51 61.6826 207.548 61.6078V61.2711V61.1028C207.585 61.0654 207.604 61.0093 207.604 60.9344V60.5978C207.604 60.4481 207.623 60.2985 207.66 60.1488V58.8582ZM196.118 64.3575C196.118 64.1704 196.099 63.9647 196.062 63.7402V63.0668V61.8323C196.024 61.0093 196.005 60.2237 196.005 59.4755C196.005 58.7273 195.987 58.0165 195.949 57.3431C195.912 57.0438 195.893 56.7445 195.893 56.4452C195.893 56.146 195.874 55.8654 195.836 55.6035C195.836 55.3042 195.818 55.0424 195.78 54.8179V54.2006C195.78 54.0136 195.761 53.8452 195.724 53.6956V53.3028V53.0222C195.686 53.0222 195.668 53.0409 195.668 53.0783V53.3028C195.668 53.415 195.649 53.546 195.611 53.6956V54.2006C195.611 54.3877 195.592 54.5934 195.555 54.8179V55.6035C195.517 55.8654 195.499 56.146 195.499 56.4452C195.499 56.7445 195.48 57.0438 195.442 57.3431C195.405 58.0165 195.386 58.7273 195.386 59.4755C195.386 60.2237 195.367 61.0093 195.33 61.8323V63.0668C195.33 63.2913 195.311 63.5157 195.273 63.7402V64.3575V69.5762C195.273 69.8755 195.292 70.0999 195.33 70.2496V72.1014V73.3359C195.367 73.71 195.386 74.0841 195.386 74.4582V75.5805C195.424 75.9172 195.442 76.2539 195.442 76.5906C195.48 76.9273 195.499 77.2452 195.499 77.5445C195.499 77.8064 195.517 78.087 195.555 78.3863V79.1158C195.592 79.3402 195.611 79.546 195.611 79.733V80.2942C195.649 80.4438 195.668 80.556 195.668 80.6309V80.9114C195.668 80.9488 195.686 80.9675 195.724 80.9675V80.6309V80.2942C195.761 80.1071 195.78 79.9201 195.78 79.733V79.1158C195.818 78.8913 195.836 78.6481 195.836 78.3863C195.874 78.087 195.893 77.8064 195.893 77.5445C195.893 77.2452 195.912 76.9273 195.949 76.5906V75.5805C195.987 75.2438 196.005 74.8697 196.005 74.4582V73.3359C196.043 72.9244 196.062 72.5129 196.062 72.1014V70.8668C196.062 70.5675 196.08 70.3618 196.118 70.2496V64.3575Z" fill="#F4EDE8"/>
<path d="M170.951 82.8319C171.112 83.5163 171.294 84.0195 171.495 84.3416C171.697 84.6636 171.898 84.9253 172.1 85.1266C172.302 85.3279 172.483 85.5091 172.645 85.6701C172.806 85.8311 172.927 86.0928 173.008 86.4551H169.801C169.519 86.4551 169.257 86.3545 169.015 86.1532C168.813 85.9519 168.692 85.7103 168.652 85.4285C168.692 85.7103 168.632 85.9519 168.471 86.1532C168.309 86.3545 168.108 86.4551 167.866 86.4551H164.66C164.579 86.0928 164.599 85.8311 164.72 85.6701C164.841 85.5091 164.962 85.348 165.083 85.187C165.204 84.9857 165.305 84.724 165.385 84.402C165.466 84.0396 165.446 83.4962 165.325 82.7715V82.7111L163.994 75.8874C163.913 75.4848 163.692 75.1426 163.329 74.8608C162.966 74.5388 162.562 74.3777 162.119 74.3777H157.945C157.501 74.3777 157.098 74.5388 156.735 74.8608C156.372 75.1426 156.15 75.4848 156.07 75.8874L154.799 82.7111V82.7715C154.678 83.4962 154.638 84.0396 154.678 84.402C154.759 84.724 154.86 84.9857 154.981 85.187C155.142 85.348 155.263 85.5091 155.344 85.6701C155.465 85.8311 155.505 86.0928 155.465 86.4551H152.259C151.976 86.4551 151.754 86.3545 151.593 86.1532C151.432 85.9519 151.371 85.7103 151.412 85.4285C151.371 85.7103 151.25 85.9519 151.049 86.1532C150.847 86.3545 150.605 86.4551 150.323 86.4551H147.117C147.157 86.0928 147.258 85.8311 147.419 85.6701C147.58 85.5091 147.762 85.3279 147.964 85.1266C148.165 84.9253 148.367 84.6636 148.568 84.3416C148.77 84.0195 148.952 83.5163 149.113 82.8319L151.835 68.1579C151.916 67.5943 151.855 67.0709 151.654 66.5878C151.452 66.1048 151.129 65.7223 150.686 65.4405C151.331 65.1587 151.916 65.0178 152.44 65.0178L155.707 47.8075C155.828 47.1232 155.848 46.6199 155.767 46.2979C155.686 45.9355 155.586 45.6739 155.465 45.5128C155.344 45.3115 155.223 45.1304 155.102 44.9694C154.981 44.8083 154.961 44.5466 155.041 44.1843H159.094C159.699 44.2648 160.002 44.607 160.002 45.2109C160.002 44.9291 160.082 44.7077 160.244 44.5466C160.445 44.3454 160.667 44.2246 160.909 44.1843H165.022C165.103 44.5466 165.083 44.8083 164.962 44.9694C164.881 45.1304 164.78 45.3115 164.66 45.5128C164.539 45.6739 164.438 45.9355 164.357 46.2979C164.276 46.6199 164.297 47.1232 164.418 47.8075L167.624 65.0178C167.946 65.0178 168.249 65.058 168.531 65.1386C168.813 65.2191 169.096 65.3197 169.378 65.4405C168.491 66.0041 168.108 66.9099 168.229 68.1579L170.951 82.8319ZM156.433 61.2134C156.513 60.9719 156.553 60.7505 156.553 60.5492C156.594 60.3076 156.634 60.0862 156.674 59.8849C156.876 58.959 157.037 58.0934 157.158 57.2883C157.279 56.4429 157.4 55.678 157.521 54.9936C157.602 54.6715 157.642 54.3494 157.642 54.0274C157.683 53.7053 157.723 53.3833 157.763 53.0612C157.804 52.7794 157.844 52.5177 157.884 52.2762C157.925 52.0346 157.965 51.8132 158.005 51.6119C158.046 51.4106 158.066 51.2295 158.066 51.0684C158.066 50.8671 158.086 50.7061 158.126 50.5853V50.3438L158.066 50.5853C158.025 50.7061 157.985 50.847 157.945 51.008C157.904 51.1691 157.864 51.3502 157.824 51.5515C157.743 51.7528 157.683 51.9944 157.642 52.2762C157.602 52.5177 157.542 52.7593 157.461 53.0008C157.38 53.3229 157.3 53.6449 157.219 53.967C157.179 54.2891 157.118 54.6111 157.037 54.9332C156.836 55.6176 156.634 56.3623 156.433 57.1675C156.271 57.9324 156.09 58.7778 155.888 59.7037C155.888 59.9453 155.868 60.1667 155.828 60.368C155.787 60.5693 155.727 60.7907 155.646 61.0323C155.606 61.2738 155.565 61.5154 155.525 61.7569C155.485 61.9582 155.444 62.1796 155.404 62.4212C155.283 62.864 155.162 63.327 155.041 63.8101C154.961 64.2931 154.88 64.7762 154.799 65.2593C154.719 65.7022 154.618 66.1651 154.497 66.6482C154.416 67.1313 154.335 67.5943 154.255 68.0371C154.214 68.1579 154.194 68.2787 154.194 68.3995C154.194 68.48 154.174 68.5806 154.134 68.7014C154.053 69.0235 154.013 69.265 154.013 69.426C153.892 69.8286 153.811 70.2714 153.771 70.7545C153.69 71.1974 153.61 71.6402 153.529 72.083C153.448 72.5259 153.388 72.9285 153.347 73.2908C153.226 74.2167 153.105 74.9816 152.984 75.5855C152.904 75.9076 152.843 76.2296 152.803 76.5517C152.763 76.8737 152.722 77.1958 152.682 77.5179C152.601 77.7997 152.541 78.0815 152.5 78.3633C152.5 78.6048 152.48 78.8262 152.44 79.0275C152.4 79.2288 152.379 79.41 152.379 79.571C152.379 79.7321 152.359 79.873 152.319 79.9937C152.319 80.0742 152.299 80.1346 152.259 80.1749C152.259 80.1749 152.259 80.195 152.259 80.2353V80.2957C152.299 80.2957 152.319 80.2755 152.319 80.2353C152.319 80.1548 152.339 80.0742 152.379 79.9937C152.42 79.9132 152.44 79.7924 152.44 79.6314C152.48 79.4301 152.541 79.2288 152.621 79.0275C152.702 78.8262 152.763 78.6048 152.803 78.3633C152.884 78.1217 152.964 77.8601 153.045 77.5783C153.126 77.2964 153.186 76.9945 153.226 76.6725C153.307 76.3504 153.368 76.0283 153.408 75.7063C153.489 75.3842 153.569 75.042 153.65 74.6797C153.771 74.2771 153.872 73.8745 153.952 73.4719C154.033 73.0694 154.114 72.6467 154.194 72.2038C154.315 71.761 154.436 71.3182 154.557 70.8753C154.598 70.674 154.638 70.4727 154.678 70.2714C154.719 70.0299 154.759 69.8085 154.799 69.6072L154.981 68.8825C155.021 68.7618 155.041 68.641 155.041 68.5202C155.041 68.3995 155.061 68.2787 155.102 68.1579C155.182 67.7151 155.283 67.2722 155.404 66.8294C155.525 66.3463 155.626 65.8632 155.707 65.3801C155.787 64.9373 155.868 64.4743 155.949 63.9912C156.029 63.5081 156.11 63.0452 156.191 62.6023C156.231 62.3608 156.271 62.1192 156.312 61.8777C156.352 61.6361 156.392 61.4147 156.433 61.2134ZM161.574 71.5396C162.018 71.4993 162.361 71.3383 162.603 71.0565C162.885 70.7344 162.986 70.352 162.905 69.9091L162.542 68.1579C162.381 67.5943 162.099 67.0709 161.695 66.5878C161.332 66.1048 160.889 65.7223 160.365 65.4405C160.848 65.1587 161.373 65.0178 161.937 65.0178L160.002 54.6916L158.066 65.0178C158.59 65.0178 159.135 65.1587 159.699 65.4405C159.135 65.7223 158.651 66.1048 158.247 66.5878C157.884 67.0709 157.642 67.5943 157.521 68.1579L157.219 69.9091C157.138 70.352 157.219 70.7344 157.461 71.0565C157.703 71.3383 158.025 71.4993 158.429 71.5396H161.574ZM167.684 79.9937C167.684 80.0742 167.684 80.1346 167.684 80.1749C167.724 80.1749 167.745 80.195 167.745 80.2353V79.9937C167.704 79.873 167.684 79.7321 167.684 79.571C167.684 79.41 167.664 79.2288 167.624 79.0275C167.583 78.8262 167.543 78.6048 167.503 78.3633C167.503 78.0815 167.462 77.7997 167.382 77.5179C167.341 77.1958 167.301 76.8737 167.261 76.5517C167.22 76.2296 167.16 75.9076 167.079 75.5855C166.958 74.9816 166.837 74.2167 166.716 73.2908C166.636 72.9285 166.555 72.5259 166.474 72.083C166.434 71.6402 166.373 71.1974 166.293 70.7545C166.212 70.513 166.152 70.2916 166.111 70.0903C166.111 69.889 166.071 69.6676 165.99 69.426C165.99 69.265 165.95 69.0235 165.869 68.7014C165.869 68.5806 165.849 68.48 165.809 68.3995C165.809 68.2787 165.809 68.1579 165.809 68.0371C165.728 67.5943 165.627 67.1313 165.506 66.6482C165.426 66.1651 165.345 65.7022 165.264 65.2593C165.184 64.7762 165.083 64.2931 164.962 63.8101C164.881 63.327 164.78 62.864 164.66 62.4212C164.619 62.1796 164.579 61.9582 164.539 61.7569C164.498 61.5154 164.458 61.2738 164.418 61.0323C164.337 60.7907 164.276 60.5693 164.236 60.368C164.196 60.1667 164.155 59.9453 164.115 59.7037C163.913 58.7778 163.712 57.9324 163.51 57.1675C163.349 56.3623 163.208 55.6176 163.087 54.9332C163.006 54.6111 162.925 54.2891 162.845 53.967C162.764 53.6449 162.683 53.3229 162.603 53.0008C162.522 52.7593 162.441 52.5177 162.361 52.2762C162.32 51.9944 162.26 51.7528 162.179 51.5515C162.139 51.3502 162.099 51.1691 162.058 51.008C162.018 50.847 161.978 50.7061 161.937 50.5853L161.877 50.3438V50.5853C161.917 50.7866 161.978 51.1288 162.058 51.6119C162.058 51.8132 162.078 52.0346 162.119 52.2762C162.159 52.5177 162.199 52.7794 162.24 53.0612C162.28 53.3833 162.32 53.7053 162.361 54.0274C162.401 54.3494 162.462 54.6715 162.542 54.9936C162.663 55.678 162.784 56.4429 162.905 57.2883C163.026 58.0934 163.167 58.959 163.329 59.8849C163.369 60.0862 163.389 60.3076 163.389 60.5492C163.429 60.7505 163.49 60.9719 163.571 61.2134C163.611 61.4147 163.651 61.6361 163.692 61.8777C163.732 62.1192 163.772 62.3608 163.813 62.6023C163.893 63.0452 163.974 63.5081 164.055 63.9912C164.176 64.4743 164.276 64.9373 164.357 65.3801C164.438 65.8632 164.539 66.3463 164.66 66.8294C164.78 67.2722 164.881 67.7151 164.962 68.1579C165.002 68.2787 165.022 68.3995 165.022 68.5202C165.022 68.641 165.043 68.7618 165.083 68.8825L165.264 69.6072C165.305 69.8085 165.345 70.0299 165.385 70.2714C165.426 70.4727 165.466 70.674 165.506 70.8753C165.627 71.3182 165.728 71.761 165.809 72.2038C165.89 72.6467 165.97 73.0694 166.051 73.4719C166.131 73.8745 166.212 74.2771 166.293 74.6797C166.414 75.042 166.515 75.3842 166.595 75.7063C166.676 76.0283 166.757 76.3504 166.837 76.6725C166.918 76.9945 166.999 77.2964 167.079 77.5783C167.2 78.1419 167.321 78.625 167.442 79.0275C167.523 79.2288 167.563 79.4301 167.563 79.6314C167.603 79.7924 167.644 79.9132 167.684 79.9937Z" fill="#F4EDE8"/>
</svg>
